<?xml version="1.0" standalone="no"?>
<!DOCTYPE svg PUBLIC "-//W3C//DTD SVG 20010904//EN"
 "http://www.w3.org/TR/2001/REC-SVG-20010904/DTD/svg10.dtd">
<svg version="1.0" xmlns="http://www.w3.org/2000/svg"
 width="512.000000pt" height="512.000000pt" viewBox="0 0 512.000000 512.000000"
 preserveAspectRatio="xMidYMid meet">
<metadata>
Created by potrace 1.11, written by Peter Selinger 2001-2013
</metadata>
<g transform="translate(0.000000,512.000000) scale(0.100000,-0.100000)"
fill="#000000" stroke="none">
<path d="M2190 5050 c-94 -20 -186 -49 -303 -95 -245 -97 -328 -117 -517 -122
-180 -5 -269 6 -532 66 -282 65 -345 74 -498 68 -79 -3 -160 -12 -195 -22 -96
-27 -154 -98 -109 -136 75 -62 109 -331 98 -784 -6 -256 -28 -2743 -27 -3140
0 -232 11 -312 52 -393 48 -94 175 -176 334 -217 206 -52 397 -61 985 -45 623
16 783 5 930 -66 34 -17 64 -41 83 -68 53 -74 57 -78 78 -66 11 5 46 37 80 70
38 39 83 71 123 90 103 48 191 54 608 44 513 -13 946 -11 1055 4 300 42 464
127 530 273 56 127 68 326 40 719 -19 284 -24 3256 -5 3369 15 92 33 145 66
193 32 46 28 74 -16 109 -82 67 -269 101 -438 81 -54 -6 -181 -32 -283 -57
-305 -76 -391 -89 -584 -89 -194 -1 -272 15 -444 86 -374 155 -350 150 -701
154 -270 3 -277 2 -410 -26z m731 -168 c42 -11 154 -53 248 -92 95 -39 216
-83 269 -98 89 -24 113 -26 302 -26 235 -1 276 5 605 87 205 51 213 52 357 52
92 0 151 -4 158 -11 7 -7 6 -29 -4 -75 -8 -35 -19 -102 -25 -149 -14 -123 4
-3331 20 -3555 14 -203 3 -352 -34 -425 -45 -91 -158 -143 -383 -177 -102 -15
-171 -17 -494 -13 -732 9 -1061 6 -1120 -9 -76 -19 -154 -55 -200 -91 -21 -16
-43 -30 -48 -30 -6 0 -31 13 -55 29 -53 36 -167 76 -268 93 -76 13 -392 16
-1094 10 -386 -3 -518 7 -662 53 -111 35 -169 74 -196 133 -27 58 -27 -18 -10
2232 12 1628 11 1733 -23 1883 -12 52 -13 72 -4 80 22 23 242 13 375 -16 66
-14 192 -42 280 -61 268 -59 455 -67 660 -30 116 22 201 48 370 116 97 39 196
71 280 89 127 28 136 28 375 25 208 -3 257 -7 321 -24z"/>
<path d="M582 4354 l3 -106 203 -72 c145 -51 215 -80 240 -102 l37 -31 6 -709
c4 -390 7 -712 8 -716 0 -5 185 -8 410 -8 l408 0 7 77 c3 42 6 357 6 700 0
699 -4 663 73 706 23 14 129 55 235 92 l192 68 0 103 0 104 -915 0 -916 0 3
-106z"/>
<path d="M3060 4355 l0 -104 133 -70 c72 -38 138 -73 145 -78 9 -6 -124 -158
-470 -534 -266 -289 -539 -588 -608 -664 -69 -76 -156 -173 -194 -214 l-70
-76 242 -3 c133 -1 350 -1 481 0 l240 3 -105 144 -105 145 49 50 c73 77 887
912 962 987 100 101 155 132 371 209 107 39 213 77 237 86 l42 16 0 104 0 104
-675 0 -675 0 0 -105z"/>
<path d="M1077 2358 c-4 -79 -7 -385 -7 -681 0 -587 1 -574 -57 -615 -16 -11
-118 -51 -228 -90 l-200 -70 -3 -106 -3 -106 911 0 911 0 -3 106 -3 106 -195
70 c-107 38 -210 79 -227 91 -66 45 -64 25 -61 622 l3 539 114 83 c62 46 117
83 121 83 4 0 40 -46 81 -102 40 -57 268 -366 507 -687 317 -428 430 -586 420
-592 -7 -5 -68 -32 -135 -61 l-123 -53 0 -102 0 -103 840 0 840 0 0 100 c0 95
-1 101 -22 109 -13 4 -99 34 -192 66 -163 56 -171 60 -234 119 -43 40 -174
206 -375 476 -247 330 -639 848 -703 926 -9 12 -173 14 -991 14 l-980 0 -6
-142z"/>
</g>
</svg>
