<?xml version="1.0" standalone="no"?>
<!DOCTYPE svg PUBLIC "-//W3C//DTD SVG 20010904//EN"
 "http://www.w3.org/TR/2001/REC-SVG-20010904/DTD/svg10.dtd">
<svg version="1.0" xmlns="http://www.w3.org/2000/svg"
 width="500.000000pt" height="500.000000pt" viewBox="0 0 500.000000 500.000000"
 preserveAspectRatio="xMidYMid meet">
<metadata>
Created by potrace 1.11, written by Peter Selinger 2001-2013
</metadata>
<g transform="translate(0.000000,500.000000) scale(0.100000,-0.100000)"
fill="#000000" stroke="none">
<path d="M2100 4790 c-81 -17 -195 -52 -285 -85 -225 -86 -313 -106 -488 -112
-176 -7 -256 3 -538 63 -114 24 -237 48 -275 54 -103 15 -248 12 -348 -6 -74
-14 -95 -22 -125 -49 -32 -29 -37 -40 -39 -83 -1 -33 8 -80 27 -139 17 -50 34
-131 40 -185 6 -63 5 -592 -2 -1559 -17 -2045 -17 -1978 10 -2064 71 -219 269
-316 708 -346 130 -9 276 -9 615 0 677 18 812 5 963 -96 76 -51 85 -55 129
-50 36 3 60 14 101 45 145 113 196 119 869 102 638 -16 825 -8 1035 45 159 41
279 118 339 221 57 96 82 299 64 509 -14 164 -32 3124 -19 3230 5 44 21 112
35 151 19 54 24 86 22 135 -3 59 -5 65 -36 86 -92 61 -260 90 -427 73 -52 -5
-183 -30 -290 -55 -250 -58 -352 -74 -501 -82 -202 -10 -314 12 -569 114 -254
102 -272 105 -600 109 -277 3 -282 3 -415 -26z m559 -210 c146 -11 223 -31
396 -100 408 -163 611 -168 1201 -31 72 17 176 36 230 42 85 10 105 9 136 -4
48 -20 54 -43 40 -171 -9 -74 -9 -508 -1 -1636 6 -844 12 -1629 13 -1745 1
-200 0 -212 -22 -256 -12 -26 -31 -54 -41 -63 -28 -26 -145 -63 -257 -83 -107
-18 -412 -22 -1174 -14 -426 4 -460 0 -608 -76 l-93 -47 -59 32 c-33 18 -103
45 -157 60 l-98 27 -735 0 c-791 0 -821 2 -992 55 -83 25 -121 57 -145 118
-21 56 -21 -84 -6 1997 7 847 8 1525 3 1570 -5 44 -12 101 -16 127 -6 41 -4
49 19 72 44 44 146 36 512 -42 240 -52 317 -62 466 -62 202 0 320 25 598 124
293 105 479 130 790 106z m-2419 -925 l0 -95 -61 0 c-59 0 -61 1 -55 23 3 12
6 55 6 95 l0 72 55 0 55 0 0 -95z m4580 0 l0 -95 -55 0 -55 0 0 95 0 95 55 0
55 0 0 -95z m-4590 -2267 c0 -24 -3 -67 -6 -95 l-7 -53 -53 0 -54 0 0 95 0 95
60 0 60 0 0 -42z m4600 8 c0 -18 3 -61 6 -95 l7 -61 -62 0 -61 0 0 49 c0 26
-3 69 -6 95 l-7 46 62 0 61 0 0 -34z"/>
<path d="M590 4300 c0 -17 7 -20 44 -20 147 0 294 -45 371 -112 103 -91 106
-110 112 -785 l5 -553 29 24 c15 13 46 27 68 31 27 4 45 15 56 32 17 26 86 62
119 63 11 0 31 14 45 31 25 29 86 59 124 59 15 0 17 13 18 138 0 75 4 272 9
437 9 311 18 384 60 464 53 104 216 171 416 171 47 0 54 2 54 20 0 20 -7 20
-765 20 -758 0 -765 0 -765 -20z"/>
<path d="M2730 4302 c0 -15 14 -20 98 -29 147 -16 208 -55 233 -147 32 -117
-70 -275 -398 -617 l-138 -143 65 -12 c36 -6 80 -15 98 -19 32 -7 36 -4 320
277 380 377 510 483 708 579 90 44 215 79 281 79 39 0 43 2 43 25 l0 25 -655
0 c-624 0 -655 -1 -655 -18z"/>
<path d="M2389 3181 l-67 -6 -337 -310 c-185 -170 -345 -313 -356 -317 -40
-15 -49 14 -49 157 l0 133 -47 -10 c-31 -7 -62 -23 -86 -44 -20 -19 -39 -34
-41 -34 -42 0 -109 -24 -133 -49 -29 -28 -86 -51 -130 -51 l-23 0 0 -244 0
-244 61 16 c45 11 63 21 71 38 11 24 33 35 108 55 27 8 54 24 68 41 14 16 40
32 65 38 85 22 87 23 87 89 0 97 31 110 101 44 41 -39 53 -37 98 11 17 18 43
29 84 37 41 8 68 21 88 40 29 29 72 45 147 56 23 3 42 8 42 10 0 3 -9 16 -20
30 -11 14 -20 33 -20 41 0 8 104 117 231 241 269 262 266 250 58 232z"/>
<path d="M2293 2445 c-9 -24 -57 -45 -138 -60 -48 -10 -82 -22 -96 -36 -27
-27 -71 -45 -133 -54 l-49 -7 168 -168 c159 -159 170 -168 189 -154 14 10 49
14 117 14 l97 0 -14 -30 c-17 -34 -44 -43 -121 -44 l-52 -1 393 -395 c227
-228 404 -415 420 -441 54 -95 48 -198 -17 -263 -45 -45 -127 -76 -200 -76
-33 0 -37 -3 -37 -25 l0 -25 855 0 855 0 0 23 c0 21 -7 24 -80 35 -169 24
-390 117 -547 229 -180 128 -223 169 -1080 1010 -270 266 -498 483 -507 483
-9 0 -19 -7 -23 -15z m292 -415 c14 -23 -17 -40 -71 -40 -47 0 -54 3 -54 19 0
11 6 22 13 24 23 10 106 7 112 -3z"/>
<path d="M1550 2138 c-14 -5 -56 -13 -93 -18 -51 -6 -73 -14 -83 -28 -19 -27
-76 -48 -154 -57 -107 -12 -100 16 -100 -394 0 -379 -11 -580 -35 -675 -39
-150 -164 -228 -390 -242 -93 -6 -105 -9 -105 -25 0 -18 27 -19 765 -19 738 0
765 1 765 19 0 16 -12 19 -102 25 -111 7 -182 22 -238 51 -97 49 -132 94 -161
201 -20 73 -22 121 -33 625 l-11 546 -25 -9z"/>
</g>
</svg>
