<?xml version="1.0" encoding="UTF-8"?><svg xmlns="http://www.w3.org/2000/svg" xmlns:xlink="http://www.w3.org/1999/xlink" fill-opacity="1" color-rendering="auto" color-interpolation="auto" text-rendering="auto" stroke="black" stroke-linecap="square" width="1390" stroke-miterlimit="10" shape-rendering="auto" stroke-opacity="1" fill="black" stroke-dasharray="none" font-weight="normal" stroke-width="1" height="1059" font-family="'Dialog'" font-style="normal" stroke-linejoin="miter" font-size="12px" stroke-dashoffset="0" image-rendering="auto">
  <!--Generated by ySVG 2.5-->
  <defs id="genericDefs"/>
  <g>
    <defs id="defs1">
      <clipPath clipPathUnits="userSpaceOnUse" id="clipPath1">
        <path d="M0 0 L1390 0 L1390 1059 L0 1059 L0 0 Z"/>
      </clipPath>
      <clipPath clipPathUnits="userSpaceOnUse" id="clipPath2">
        <path d="M-112 -429 L1278 -429 L1278 630 L-112 630 L-112 -429 Z"/>
      </clipPath>
    </defs>
    <g fill="white" text-rendering="geometricPrecision" shape-rendering="geometricPrecision" transform="translate(112,429)" stroke="white">
      <rect x="-112" width="1390" height="1059" y="-429" clip-path="url(#clipPath2)" stroke="none"/>
    </g>
    <g fill="fuchsia" text-rendering="geometricPrecision" shape-rendering="geometricPrecision" transform="matrix(1,0,0,1,112,429)" stroke="fuchsia">
      <rect x="551" y="-200" clip-path="url(#clipPath2)" width="175" rx="4" ry="4" height="44" stroke="none"/>
    </g>
    <g text-rendering="geometricPrecision" stroke-miterlimit="1.45" shape-rendering="geometricPrecision" transform="matrix(1,0,0,1,112,429)" stroke-linecap="butt">
      <rect x="551" y="-200" clip-path="url(#clipPath2)" fill="none" width="175" rx="4" ry="4" height="44"/>
      <text x="576.3027" xml:space="preserve" y="-173.4648" clip-path="url(#clipPath2)" font-family="sans-serif" stroke="none">No coremod installed</text>
    </g>
    <g fill="rgb(255,204,0)" text-rendering="geometricPrecision" shape-rendering="geometricPrecision" transform="matrix(1,0,0,1,112,429)" stroke="rgb(255,204,0)">
      <rect x="292.5" y="-200" clip-path="url(#clipPath2)" width="187" rx="4" ry="4" height="44" stroke="none"/>
    </g>
    <g text-rendering="geometricPrecision" stroke-miterlimit="1.45" shape-rendering="geometricPrecision" transform="matrix(1,0,0,1,112,429)" stroke-linecap="butt">
      <rect x="292.5" y="-200" clip-path="url(#clipPath2)" fill="none" width="187" rx="4" ry="4" height="44"/>
      <text x="301.168" xml:space="preserve" y="-180.5312" clip-path="url(#clipPath2)" font-family="sans-serif" stroke="none">Coremod installed with other</text>
      <text x="357.3213" xml:space="preserve" y="-166.3984" clip-path="url(#clipPath2)" font-family="sans-serif" stroke="none">coremods</text>
    </g>
    <g fill="rgb(255,102,0)" text-rendering="geometricPrecision" shape-rendering="geometricPrecision" transform="matrix(1,0,0,1,112,429)" stroke="rgb(255,102,0)">
      <rect x="46" y="-200" clip-path="url(#clipPath2)" width="175" rx="4" ry="4" height="44" stroke="none"/>
    </g>
    <g text-rendering="geometricPrecision" stroke-miterlimit="1.45" shape-rendering="geometricPrecision" transform="matrix(1,0,0,1,112,429)" stroke-linecap="butt">
      <rect x="46" y="-200" clip-path="url(#clipPath2)" fill="none" width="175" rx="4" ry="4" height="44"/>
      <text x="67.5293" xml:space="preserve" y="-180.5312" clip-path="url(#clipPath2)" font-family="sans-serif" stroke="none">Coremod installed and</text>
      <text x="51.6035" xml:space="preserve" y="-166.3984" clip-path="url(#clipPath2)" font-family="sans-serif" stroke="none">no other coremods installed</text>
    </g>
    <g fill="rgb(255,102,0)" text-rendering="geometricPrecision" shape-rendering="geometricPrecision" transform="matrix(1,0,0,1,112,429)" stroke="rgb(255,102,0)">
      <rect x="37" y="-113.5" clip-path="url(#clipPath2)" width="193" rx="4" ry="4" height="49" stroke="none"/>
    </g>
    <g text-rendering="geometricPrecision" stroke-miterlimit="1.45" shape-rendering="geometricPrecision" transform="matrix(1,0,0,1,112,429)" stroke-linecap="butt">
      <rect x="37" y="-113.5" clip-path="url(#clipPath2)" fill="none" width="193" rx="4" ry="4" height="49"/>
      <text x="45.5771" xml:space="preserve" y="-91.5312" clip-path="url(#clipPath2)" font-family="sans-serif" stroke="none">Cancel entire chunk rendering</text>
      <text x="78.0439" xml:space="preserve" y="-77.3984" clip-path="url(#clipPath2)" font-family="sans-serif" stroke="none">and do it ourselves</text>
    </g>
    <g fill="rgb(255,204,0)" text-rendering="geometricPrecision" shape-rendering="geometricPrecision" transform="matrix(1,0,0,1,112,429)" stroke="rgb(255,204,0)">
      <rect x="292.5" y="-111" clip-path="url(#clipPath2)" width="187" rx="4" ry="4" height="44" stroke="none"/>
    </g>
    <g text-rendering="geometricPrecision" stroke-miterlimit="1.45" shape-rendering="geometricPrecision" transform="matrix(1,0,0,1,112,429)" stroke-linecap="butt">
      <rect x="292.5" y="-111" clip-path="url(#clipPath2)" fill="none" width="187" rx="4" ry="4" height="44"/>
      <text x="297.8955" xml:space="preserve" y="-84.4648" clip-path="url(#clipPath2)" font-family="sans-serif" stroke="none">Render in the PreRender event</text>
    </g>
    <g fill="fuchsia" text-rendering="geometricPrecision" shape-rendering="geometricPrecision" transform="matrix(1,0,0,1,112,429)" stroke="fuchsia">
      <rect x="551" y="-111" clip-path="url(#clipPath2)" width="175" rx="4" ry="4" height="44" stroke="none"/>
    </g>
    <g text-rendering="geometricPrecision" stroke-miterlimit="1.45" shape-rendering="geometricPrecision" transform="matrix(1,0,0,1,112,429)" stroke-linecap="butt">
      <rect x="551" y="-111" clip-path="url(#clipPath2)" fill="none" width="175" rx="4" ry="4" height="44"/>
      <text x="564.9004" xml:space="preserve" y="-84.4648" clip-path="url(#clipPath2)" font-family="sans-serif" stroke="none">Model hooking rendering</text>
    </g>
    <g fill="rgb(255,102,0)" text-rendering="geometricPrecision" shape-rendering="geometricPrecision" transform="matrix(1,0,0,1,112,429)" stroke="rgb(255,102,0)">
      <rect x="-96.5965" y="-10.5177" clip-path="url(#clipPath2)" width="193" rx="4" ry="4" height="49" stroke="none"/>
    </g>
    <g text-rendering="geometricPrecision" stroke-miterlimit="1.45" shape-rendering="geometricPrecision" transform="matrix(1,0,0,1,112,429)" stroke-linecap="butt">
      <rect x="-96.5965" y="-10.5177" clip-path="url(#clipPath2)" fill="none" width="193" rx="4" ry="4" height="49"/>
      <text x="-50.4139" xml:space="preserve" y="11.451" clip-path="url(#clipPath2)" font-family="sans-serif" stroke="none">Setup generator, </text>
      <text x="-53.1122" xml:space="preserve" y="25.5838" clip-path="url(#clipPath2)" font-family="sans-serif" stroke="none">evaluate word etc.</text>
    </g>
    <g fill="rgb(255,102,0)" text-rendering="geometricPrecision" shape-rendering="geometricPrecision" transform="matrix(1,0,0,1,112,429)" stroke="rgb(255,102,0)">
      <rect x="-96.5965" y="68.4823" clip-path="url(#clipPath2)" width="193" rx="4" ry="4" height="49" stroke="none"/>
    </g>
    <g text-rendering="geometricPrecision" stroke-miterlimit="1.45" shape-rendering="geometricPrecision" transform="matrix(1,0,0,1,112,429)" stroke-linecap="butt">
      <rect x="-96.5965" y="68.4823" clip-path="url(#clipPath2)" fill="none" width="193" rx="4" ry="4" height="49"/>
      <text x="-47.6805" xml:space="preserve" y="97.5174" clip-path="url(#clipPath2)" font-family="sans-serif" stroke="none">Generate caches</text>
    </g>
    <g fill="rgb(255,102,0)" text-rendering="geometricPrecision" shape-rendering="geometricPrecision" transform="matrix(1,0,0,1,112,429)" stroke="rgb(255,102,0)">
      <rect x="-96.5965" y="159.0916" clip-path="url(#clipPath2)" width="193" rx="4" ry="4" height="49" stroke="none"/>
    </g>
    <g text-rendering="geometricPrecision" stroke-miterlimit="1.45" shape-rendering="geometricPrecision" transform="matrix(1,0,0,1,112,429)" stroke-linecap="butt">
      <rect x="-96.5965" y="159.0916" clip-path="url(#clipPath2)" fill="none" width="193" rx="4" ry="4" height="49"/>
      <text x="-60.9198" xml:space="preserve" y="188.1267" clip-path="url(#clipPath2)" font-family="sans-serif" stroke="none">Generate Scalar Field</text>
    </g>
    <g fill="rgb(255,102,0)" text-rendering="geometricPrecision" shape-rendering="geometricPrecision" transform="matrix(1,0,0,1,112,429)" stroke="rgb(255,102,0)">
      <rect x="-96.5965" y="249.7009" clip-path="url(#clipPath2)" width="193" rx="4" ry="4" height="49" stroke="none"/>
    </g>
    <g text-rendering="geometricPrecision" stroke-miterlimit="1.45" shape-rendering="geometricPrecision" transform="matrix(1,0,0,1,112,429)" stroke-linecap="butt">
      <rect x="-96.5965" y="249.7009" clip-path="url(#clipPath2)" fill="none" width="193" rx="4" ry="4" height="49"/>
      <text x="-70.1014" xml:space="preserve" y="278.736" clip-path="url(#clipPath2)" font-family="sans-serif" stroke="none">Generate chunk vertices</text>
    </g>
    <g fill="rgb(255,102,0)" text-rendering="geometricPrecision" shape-rendering="geometricPrecision" transform="matrix(1,0,0,1,112,429)" stroke="rgb(255,102,0)">
      <rect x="-96.5965" y="328.7009" clip-path="url(#clipPath2)" width="193" rx="4" ry="4" height="49" stroke="none"/>
    </g>
    <g text-rendering="geometricPrecision" stroke-miterlimit="1.45" shape-rendering="geometricPrecision" transform="matrix(1,0,0,1,112,429)" stroke-linecap="butt">
      <rect x="-96.5965" y="328.7009" clip-path="url(#clipPath2)" fill="none" width="193" rx="4" ry="4" height="49"/>
      <text x="-72.3895" xml:space="preserve" y="357.736" clip-path="url(#clipPath2)" font-family="sans-serif" stroke="none">Generate lightmap cache</text>
    </g>
    <g fill="rgb(255,102,0)" text-rendering="geometricPrecision" shape-rendering="geometricPrecision" transform="matrix(1,0,0,1,112,429)" stroke="rgb(255,102,0)">
      <rect x="-96.5965" y="407.7009" clip-path="url(#clipPath2)" width="193" rx="4" ry="4" height="49" stroke="none"/>
    </g>
    <g text-rendering="geometricPrecision" stroke-miterlimit="1.45" shape-rendering="geometricPrecision" transform="matrix(1,0,0,1,112,429)" stroke-linecap="butt">
      <rect x="-96.5965" y="407.7009" clip-path="url(#clipPath2)" fill="none" width="193" rx="4" ry="4" height="49"/>
      <text x="-37.4237" xml:space="preserve" y="436.736" clip-path="url(#clipPath2)" font-family="sans-serif" stroke="none">Render faces</text>
    </g>
    <g fill="rgb(255,102,0)" text-rendering="geometricPrecision" shape-rendering="geometricPrecision" transform="matrix(1,0,0,1,112,429)" stroke="rgb(255,102,0)">
      <rect x="-96.5965" y="493.4853" clip-path="url(#clipPath2)" width="193" rx="4" ry="4" height="49" stroke="none"/>
    </g>
    <g text-rendering="geometricPrecision" stroke-miterlimit="1.45" shape-rendering="geometricPrecision" transform="matrix(1,0,0,1,112,429)" stroke-linecap="butt">
      <rect x="-96.5965" y="493.4853" clip-path="url(#clipPath2)" fill="none" width="193" rx="4" ry="4" height="49"/>
      <text x="-46.8866" xml:space="preserve" y="515.454" clip-path="url(#clipPath2)" font-family="sans-serif" stroke="none">Generate bigger</text>
      <text x="-73.8719" xml:space="preserve" y="529.5869" clip-path="url(#clipPath2)" font-family="sans-serif" stroke="none">cache for extended water</text>
    </g>
    <g fill="rgb(255,102,0)" text-rendering="geometricPrecision" shape-rendering="geometricPrecision" transform="matrix(1,0,0,1,112,429)" stroke="rgb(255,102,0)">
      <rect x="-96.5965" y="565.5869" clip-path="url(#clipPath2)" width="193" rx="4" ry="4" height="49" stroke="none"/>
    </g>
    <g text-rendering="geometricPrecision" stroke-miterlimit="1.45" shape-rendering="geometricPrecision" transform="matrix(1,0,0,1,112,429)" stroke-linecap="butt">
      <rect x="-96.5965" y="565.5869" clip-path="url(#clipPath2)" fill="none" width="193" rx="4" ry="4" height="49"/>
      <text x="-67.535" xml:space="preserve" y="594.622" clip-path="url(#clipPath2)" font-family="sans-serif" stroke="none">Render extended water</text>
    </g>
    <g fill="rgb(255,204,0)" text-rendering="geometricPrecision" shape-rendering="geometricPrecision" transform="matrix(1,0,0,1,112,429)" stroke="rgb(255,204,0)">
      <rect x="289.5" y="-10.5177" clip-path="url(#clipPath2)" width="193" rx="4" ry="4" height="49" stroke="none"/>
    </g>
    <g text-rendering="geometricPrecision" stroke-miterlimit="1.45" shape-rendering="geometricPrecision" transform="matrix(1,0,0,1,112,429)" stroke-linecap="butt">
      <rect x="289.5" y="-10.5177" clip-path="url(#clipPath2)" fill="none" width="193" rx="4" ry="4" height="49"/>
      <text x="338.416" xml:space="preserve" y="18.5174" clip-path="url(#clipPath2)" font-family="sans-serif" stroke="none">Generate caches</text>
    </g>
    <g fill="rgb(255,204,0)" text-rendering="geometricPrecision" shape-rendering="geometricPrecision" transform="matrix(1,0,0,1,112,429)" stroke="rgb(255,204,0)">
      <rect x="289.5" y="80.0916" clip-path="url(#clipPath2)" width="193" rx="4" ry="4" height="49" stroke="none"/>
    </g>
    <g text-rendering="geometricPrecision" stroke-miterlimit="1.45" shape-rendering="geometricPrecision" transform="matrix(1,0,0,1,112,429)" stroke-linecap="butt">
      <rect x="289.5" y="80.0916" clip-path="url(#clipPath2)" fill="none" width="193" rx="4" ry="4" height="49"/>
      <text x="325.1768" xml:space="preserve" y="109.1267" clip-path="url(#clipPath2)" font-family="sans-serif" stroke="none">Generate Scalar Field</text>
    </g>
    <g fill="rgb(255,204,0)" text-rendering="geometricPrecision" shape-rendering="geometricPrecision" transform="matrix(1,0,0,1,112,429)" stroke="rgb(255,204,0)">
      <rect x="289.5" y="170.7009" clip-path="url(#clipPath2)" width="193" rx="4" ry="4" height="49" stroke="none"/>
    </g>
    <g text-rendering="geometricPrecision" stroke-miterlimit="1.45" shape-rendering="geometricPrecision" transform="matrix(1,0,0,1,112,429)" stroke-linecap="butt">
      <rect x="289.5" y="170.7009" clip-path="url(#clipPath2)" fill="none" width="193" rx="4" ry="4" height="49"/>
      <text x="315.9951" xml:space="preserve" y="199.736" clip-path="url(#clipPath2)" font-family="sans-serif" stroke="none">Generate chunk vertices</text>
    </g>
    <g fill="rgb(255,204,0)" text-rendering="geometricPrecision" shape-rendering="geometricPrecision" transform="matrix(1,0,0,1,112,429)" stroke="rgb(255,204,0)">
      <rect x="289.5" y="249.7009" clip-path="url(#clipPath2)" width="193" rx="4" ry="4" height="49" stroke="none"/>
    </g>
    <g text-rendering="geometricPrecision" stroke-miterlimit="1.45" shape-rendering="geometricPrecision" transform="matrix(1,0,0,1,112,429)" stroke-linecap="butt">
      <rect x="289.5" y="249.7009" clip-path="url(#clipPath2)" fill="none" width="193" rx="4" ry="4" height="49"/>
      <text x="313.707" xml:space="preserve" y="278.736" clip-path="url(#clipPath2)" font-family="sans-serif" stroke="none">Generate lightmap cache</text>
    </g>
    <g fill="rgb(255,204,0)" text-rendering="geometricPrecision" shape-rendering="geometricPrecision" transform="matrix(1,0,0,1,112,429)" stroke="rgb(255,204,0)">
      <rect x="289.5" y="328.7009" clip-path="url(#clipPath2)" width="193" rx="4" ry="4" height="49" stroke="none"/>
    </g>
    <g text-rendering="geometricPrecision" stroke-miterlimit="1.45" shape-rendering="geometricPrecision" transform="matrix(1,0,0,1,112,429)" stroke-linecap="butt">
      <rect x="289.5" y="328.7009" clip-path="url(#clipPath2)" fill="none" width="193" rx="4" ry="4" height="49"/>
      <text x="348.6729" xml:space="preserve" y="357.736" clip-path="url(#clipPath2)" font-family="sans-serif" stroke="none">Render faces</text>
    </g>
    <g fill="rgb(255,204,0)" text-rendering="geometricPrecision" shape-rendering="geometricPrecision" transform="matrix(1,0,0,1,112,429)" stroke="rgb(255,204,0)">
      <rect x="289.5" y="414.4853" clip-path="url(#clipPath2)" width="193" rx="4" ry="4" height="49" stroke="none"/>
    </g>
    <g text-rendering="geometricPrecision" stroke-miterlimit="1.45" shape-rendering="geometricPrecision" transform="matrix(1,0,0,1,112,429)" stroke-linecap="butt">
      <rect x="289.5" y="414.4853" clip-path="url(#clipPath2)" fill="none" width="193" rx="4" ry="4" height="49"/>
      <text x="339.21" xml:space="preserve" y="436.454" clip-path="url(#clipPath2)" font-family="sans-serif" stroke="none">Generate bigger</text>
      <text x="312.2246" xml:space="preserve" y="450.5869" clip-path="url(#clipPath2)" font-family="sans-serif" stroke="none">cache for extended water</text>
    </g>
    <g fill="rgb(255,204,0)" text-rendering="geometricPrecision" shape-rendering="geometricPrecision" transform="matrix(1,0,0,1,112,429)" stroke="rgb(255,204,0)">
      <rect x="289.5" y="486.5869" clip-path="url(#clipPath2)" width="193" rx="4" ry="4" height="49" stroke="none"/>
    </g>
    <g text-rendering="geometricPrecision" stroke-miterlimit="1.45" shape-rendering="geometricPrecision" transform="matrix(1,0,0,1,112,429)" stroke-linecap="butt">
      <rect x="289.5" y="486.5869" clip-path="url(#clipPath2)" fill="none" width="193" rx="4" ry="4" height="49"/>
      <text x="318.5615" xml:space="preserve" y="515.622" clip-path="url(#clipPath2)" font-family="sans-serif" stroke="none">Render extended water</text>
    </g>
    <g fill="rgb(255,102,0)" text-rendering="geometricPrecision" shape-rendering="geometricPrecision" transform="matrix(1,0,0,1,112,429)" stroke="rgb(255,102,0)">
      <rect x="52.0165" width="162.9671" height="30" y="-306.6504" clip-path="url(#clipPath2)" stroke="none"/>
    </g>
    <g text-rendering="geometricPrecision" stroke-miterlimit="1.45" shape-rendering="geometricPrecision" transform="matrix(1,0,0,1,112,429)" stroke-linecap="butt">
      <rect fill="none" x="52.0165" width="162.9671" height="30" y="-306.6504" clip-path="url(#clipPath2)"/>
      <text x="80.5342" xml:space="preserve" y="-287.1152" clip-path="url(#clipPath2)" font-family="sans-serif" stroke="none">OVERRIDE_CHUNK</text>
    </g>
    <g fill="rgb(255,204,0)" text-rendering="geometricPrecision" shape-rendering="geometricPrecision" transform="matrix(1,0,0,1,112,429)" stroke="rgb(255,204,0)">
      <rect x="304.5165" width="162.9671" height="30" y="-306.6504" clip-path="url(#clipPath2)" stroke="none"/>
    </g>
    <g text-rendering="geometricPrecision" stroke-miterlimit="1.45" shape-rendering="geometricPrecision" transform="matrix(1,0,0,1,112,429)" stroke-linecap="butt">
      <rect fill="none" x="304.5165" width="162.9671" height="30" y="-306.6504" clip-path="url(#clipPath2)"/>
      <text x="317.1992" xml:space="preserve" y="-287.1152" clip-path="url(#clipPath2)" font-family="sans-serif" stroke="none">COMBATIBILITY_CHUNK</text>
    </g>
    <g fill="fuchsia" text-rendering="geometricPrecision" shape-rendering="geometricPrecision" transform="matrix(1,0,0,1,112,429)" stroke="fuchsia">
      <rect x="557.0165" width="162.9671" height="30" y="-306.6504" clip-path="url(#clipPath2)" stroke="none"/>
    </g>
    <g text-rendering="geometricPrecision" stroke-miterlimit="1.45" shape-rendering="geometricPrecision" transform="matrix(1,0,0,1,112,429)" stroke-linecap="butt">
      <rect fill="none" x="557.0165" width="162.9671" height="30" y="-306.6504" clip-path="url(#clipPath2)"/>
      <text x="591.7188" xml:space="preserve" y="-287.1152" clip-path="url(#clipPath2)" font-family="sans-serif" stroke="none">MODIFY_MODEL</text>
    </g>
    <g fill="fuchsia" text-rendering="geometricPrecision" shape-rendering="geometricPrecision" transform="matrix(1,0,0,1,112,429)" stroke="fuchsia">
      <rect x="675.5965" y="-10.5177" clip-path="url(#clipPath2)" width="193" rx="4" ry="4" height="49" stroke="none"/>
    </g>
    <g text-rendering="geometricPrecision" stroke-miterlimit="1.45" shape-rendering="geometricPrecision" transform="matrix(1,0,0,1,112,429)" stroke-linecap="butt">
      <rect x="675.5965" y="-10.5177" clip-path="url(#clipPath2)" fill="none" width="193" rx="4" ry="4" height="49"/>
      <text x="708.0448" xml:space="preserve" y="11.451" clip-path="url(#clipPath2)" font-family="sans-serif" stroke="none">Talk to fellfromthesky</text>
      <text x="703.1874" xml:space="preserve" y="25.5838" clip-path="url(#clipPath2)" font-family="sans-serif" stroke="none">about how tf this works</text>
    </g>
    <g fill="fuchsia" text-rendering="geometricPrecision" shape-rendering="geometricPrecision" transform="matrix(1,0,0,1,112,429)" stroke="fuchsia">
      <rect x="675.5965" y="80.0916" clip-path="url(#clipPath2)" width="193" rx="4" ry="4" height="49" stroke="none"/>
    </g>
    <g text-rendering="geometricPrecision" stroke-miterlimit="1.45" shape-rendering="geometricPrecision" transform="matrix(1,0,0,1,112,429)" stroke-linecap="butt">
      <rect x="675.5965" y="80.0916" clip-path="url(#clipPath2)" fill="none" width="193" rx="4" ry="4" height="49"/>
      <text x="704.0663" xml:space="preserve" y="109.1267" clip-path="url(#clipPath2)" font-family="sans-serif" stroke="none">Generate block vertices</text>
    </g>
    <g fill="rgb(255,204,0)" text-rendering="geometricPrecision" shape-rendering="geometricPrecision" transform="matrix(1,0,0,1,112,429)" stroke="rgb(255,204,0)">
      <rect x="-96.5965" width="965.1931" height="77.9864" y="-413.3007" clip-path="url(#clipPath2)" stroke="none"/>
      <rect x="-96.5965" y="-413.3007" clip-path="url(#clipPath2)" fill="yellow" width="1" height="77.9864" stroke="none"/>
      <rect x="-95.5965" y="-413.3007" clip-path="url(#clipPath2)" fill="yellow" width="963.1931" height="1" stroke="none"/>
      <rect x="-95.5965" y="-336.3143" clip-path="url(#clipPath2)" fill="rgb(178,142,0)" width="964.1931" height="1" stroke="none"/>
      <rect x="867.5965" y="-413.3007" clip-path="url(#clipPath2)" fill="rgb(178,142,0)" width="1" height="76.9864" stroke="none"/>
    </g>
    <g text-rendering="geometricPrecision" stroke-miterlimit="1.45" shape-rendering="geometricPrecision" font-family="sans-serif" transform="matrix(1,0,0,1,112,429)" stroke-linecap="butt">
      <text x="356.3662" xml:space="preserve" y="-369.7724" clip-path="url(#clipPath2)" stroke="none">Rendering</text>
    </g>
    <g fill="rgb(255,204,0)" text-rendering="geometricPrecision" shape-rendering="geometricPrecision" transform="matrix(1,0,0,1,112,429)" stroke="rgb(255,204,0)">
      <rect x="1073.6278" width="175" height="77.9864" y="-413.3007" clip-path="url(#clipPath2)" stroke="none"/>
      <rect x="1073.6278" y="-413.3007" clip-path="url(#clipPath2)" fill="yellow" width="1" height="77.9864" stroke="none"/>
      <rect x="1074.6278" y="-413.3007" clip-path="url(#clipPath2)" fill="yellow" width="173" height="1" stroke="none"/>
      <rect x="1074.6278" y="-336.3143" clip-path="url(#clipPath2)" fill="rgb(178,142,0)" width="174" height="1" stroke="none"/>
      <rect x="1247.6278" y="-413.3007" clip-path="url(#clipPath2)" fill="rgb(178,142,0)" width="1" height="76.9864" stroke="none"/>
    </g>
    <g text-rendering="geometricPrecision" stroke-miterlimit="1.45" shape-rendering="geometricPrecision" font-family="sans-serif" transform="matrix(1,0,0,1,112,429)" stroke-linecap="butt">
      <text x="1132.827" xml:space="preserve" y="-369.7724" clip-path="url(#clipPath2)" stroke="none">Collisions</text>
    </g>
    <g fill="rgb(255,204,0)" text-rendering="geometricPrecision" shape-rendering="geometricPrecision" transform="matrix(1,0,0,1,112,429)" stroke="rgb(255,204,0)">
      <rect x="1073.6278" y="-111" clip-path="url(#clipPath2)" width="175" rx="4" ry="4" height="44" stroke="none"/>
    </g>
    <g text-rendering="geometricPrecision" stroke-miterlimit="1.45" shape-rendering="geometricPrecision" transform="matrix(1,0,0,1,112,429)" stroke-linecap="butt">
      <rect x="1073.6278" y="-111" clip-path="url(#clipPath2)" fill="none" width="175" rx="4" ry="4" height="44"/>
      <text x="1062.1571" xml:space="preserve" y="-84.4648" clip-path="url(#clipPath2)" font-family="sans-serif" stroke="none">Generate (&amp; cache?) block vertices</text>
    </g>
    <g fill="fuchsia" text-rendering="geometricPrecision" shape-rendering="geometricPrecision" transform="matrix(1,0,0,1,112,429)" stroke="fuchsia">
      <rect x="675.5965" y="170.7009" clip-path="url(#clipPath2)" width="193" rx="4" ry="4" height="49" stroke="none"/>
    </g>
    <g text-rendering="geometricPrecision" stroke-miterlimit="1.45" shape-rendering="geometricPrecision" transform="matrix(1,0,0,1,112,429)" stroke-linecap="butt">
      <rect x="675.5965" y="170.7009" clip-path="url(#clipPath2)" fill="none" width="193" rx="4" ry="4" height="49"/>
      <text x="682.6356" xml:space="preserve" y="199.736" clip-path="url(#clipPath2)" font-family="sans-serif" stroke="none">how will extended water work?</text>
      <path fill="none" d="M133.5 -155.9673 L133.5 -121.4915" clip-path="url(#clipPath2)"/>
      <path d="M133.5 -113.4915 L138.5 -125.4915 L133.5 -122.4915 L128.5 -125.4915 Z" clip-path="url(#clipPath2)" stroke="none"/>
      <path fill="none" d="M386 -155.9673 L386 -119.0063" clip-path="url(#clipPath2)"/>
      <path d="M386 -111.0063 L391 -123.0063 L386 -120.0063 L381 -123.0063 Z" clip-path="url(#clipPath2)" stroke="none"/>
      <path fill="none" d="M638.5 -155.9673 L638.5 -119.0063" clip-path="url(#clipPath2)"/>
      <path d="M638.5 -111.0063 L643.5 -123.0063 L638.5 -120.0063 L633.5 -123.0063 Z" clip-path="url(#clipPath2)" stroke="none"/>
      <path fill="none" d="M101.6991 -64.4864 L38.0258 -15.4041" clip-path="url(#clipPath2)"/>
      <path d="M31.6897 -10.52 L44.2464 -13.8862 L38.8178 -16.0147 L38.1412 -21.8062 Z" clip-path="url(#clipPath2)" stroke="none"/>
      <path fill="none" d="M-0.0965 38.4769 L-0.0965 60.4708" clip-path="url(#clipPath2)"/>
      <path d="M-0.0965 68.4708 L4.9035 56.4708 L-0.0965 59.4708 L-5.0965 56.4708 Z" clip-path="url(#clipPath2)" stroke="none"/>
      <path fill="none" d="M-0.0965 117.4486 L-0.0965 151.0786" clip-path="url(#clipPath2)"/>
      <path d="M-0.0965 159.0786 L4.9035 147.0786 L-0.0965 150.0786 L-5.0965 147.0786 Z" clip-path="url(#clipPath2)" stroke="none"/>
      <path fill="none" d="M-0.0965 208.0578 L-0.0965 241.6879" clip-path="url(#clipPath2)"/>
      <path d="M-0.0965 249.6879 L4.9035 237.6879 L-0.0965 240.6879 L-5.0965 237.6879 Z" clip-path="url(#clipPath2)" stroke="none"/>
      <path fill="none" d="M-0.0965 298.6955 L-0.0965 320.6894" clip-path="url(#clipPath2)"/>
      <path d="M-0.0965 328.6894 L4.9035 316.6894 L-0.0965 319.6894 L-5.0965 316.6894 Z" clip-path="url(#clipPath2)" stroke="none"/>
      <path fill="none" d="M-0.0965 377.6955 L-0.0965 399.6894" clip-path="url(#clipPath2)"/>
      <path d="M-0.0965 407.6894 L4.9035 395.6894 L-0.0965 398.6894 L-5.0965 395.6894 Z" clip-path="url(#clipPath2)" stroke="none"/>
      <path fill="none" d="M-0.0965 456.7047 L-0.0965 485.479" clip-path="url(#clipPath2)"/>
      <path d="M-0.0965 493.479 L4.9035 481.479 L-0.0965 484.479 L-5.0965 481.479 Z" clip-path="url(#clipPath2)" stroke="none"/>
      <path fill="none" d="M-0.0965 542.4534 L-0.0965 557.5723" clip-path="url(#clipPath2)"/>
      <path d="M-0.0965 565.5723 L4.9035 553.5723 L-0.0965 556.5723 L-5.0965 553.5723 Z" clip-path="url(#clipPath2)" stroke="none"/>
      <path fill="none" d="M386 -67.0006 L386 -18.4945" clip-path="url(#clipPath2)"/>
      <path d="M386 -10.4945 L391 -22.4945 L386 -19.4945 L381 -22.4945 Z" clip-path="url(#clipPath2)" stroke="none"/>
      <path fill="none" d="M386 38.4486 L386 72.0786" clip-path="url(#clipPath2)"/>
      <path d="M386 80.0786 L391 68.0786 L386 71.0786 L381 68.0786 Z" clip-path="url(#clipPath2)" stroke="none"/>
      <path fill="none" d="M386 129.0578 L386 162.6879" clip-path="url(#clipPath2)"/>
      <path d="M386 170.6879 L391 158.6879 L386 161.6879 L381 158.6879 Z" clip-path="url(#clipPath2)" stroke="none"/>
      <path fill="none" d="M386 219.6955 L386 241.6894" clip-path="url(#clipPath2)"/>
      <path d="M386 249.6894 L391 237.6894 L386 240.6894 L381 237.6894 Z" clip-path="url(#clipPath2)" stroke="none"/>
      <path fill="none" d="M386 298.6955 L386 320.6894" clip-path="url(#clipPath2)"/>
      <path d="M386 328.6894 L391 316.6894 L386 319.6894 L381 316.6894 Z" clip-path="url(#clipPath2)" stroke="none"/>
      <path fill="none" d="M386 377.7047 L386 406.479" clip-path="url(#clipPath2)"/>
      <path d="M386 414.479 L391 402.479 L386 405.479 L381 402.479 Z" clip-path="url(#clipPath2)" stroke="none"/>
      <path fill="none" d="M386 463.4533 L386 478.5724" clip-path="url(#clipPath2)"/>
      <path d="M386 486.5724 L391 474.5724 L386 477.5724 L381 474.5724 Z" clip-path="url(#clipPath2)" stroke="none"/>
      <path fill="none" d="M133.5 -276.6504 L133.5 -208.0133" clip-path="url(#clipPath2)"/>
      <path d="M133.5 -200.0133 L138.5 -212.0133 L133.5 -209.0133 L128.5 -212.0133 Z" clip-path="url(#clipPath2)" stroke="none"/>
      <path fill="none" d="M386 -276.6504 L386 -208.0133" clip-path="url(#clipPath2)"/>
      <path d="M386 -200.0133 L391 -212.0133 L386 -209.0133 L381 -212.0133 Z" clip-path="url(#clipPath2)" stroke="none"/>
      <path fill="none" d="M638.5 -276.6504 L638.5 -208.0133" clip-path="url(#clipPath2)"/>
      <path d="M638.5 -200.0133 L643.5 -212.0133 L638.5 -209.0133 L633.5 -212.0133 Z" clip-path="url(#clipPath2)" stroke="none"/>
      <path fill="none" d="M667.0393 -67.0006 L733.9817 -15.3984" clip-path="url(#clipPath2)"/>
      <path d="M740.3177 -10.5143 L733.8662 -21.8004 L733.1897 -16.0089 L727.7611 -13.8804 Z" clip-path="url(#clipPath2)" stroke="none"/>
    </g>
  </g>
</svg>
