<?xml version="1.0" encoding="UTF-8"?><svg xmlns="http://www.w3.org/2000/svg" xmlns:xlink="http://www.w3.org/1999/xlink" fill-opacity="1" color-rendering="auto" color-interpolation="auto" text-rendering="auto" stroke="black" stroke-linecap="square" width="723" stroke-miterlimit="10" shape-rendering="auto" stroke-opacity="1" fill="black" stroke-dasharray="none" font-weight="normal" stroke-width="1" height="813" font-family="'Dialog'" font-style="normal" stroke-linejoin="miter" font-size="12px" stroke-dashoffset="0" image-rendering="auto">
  <!--Generated by ySVG 2.5-->
  <defs id="genericDefs"/>
  <g>
    <defs id="defs1">
      <linearGradient x1="158.3134" gradientUnits="userSpaceOnUse" x2="478.3134" y1="305.5" y2="800.5" id="linearGradient1" spreadMethod="reflect">
        <stop stop-opacity="1" stop-color="rgb(232,238,247)" offset="0%"/>
        <stop stop-opacity="1" stop-color="rgb(183,201,227)" offset="100%"/>
      </linearGradient>
      <linearGradient x1="-68.75" gradientUnits="userSpaceOnUse" x2="342.25" y1="18" y2="265" id="linearGradient2" spreadMethod="reflect">
        <stop stop-opacity="1" stop-color="rgb(232,238,247)" offset="0%"/>
        <stop stop-opacity="1" stop-color="rgb(183,201,227)" offset="100%"/>
      </linearGradient>
      <linearGradient x1="167.3134" gradientUnits="userSpaceOnUse" x2="419.3134" y1="317.5" y2="417.5" id="linearGradient3" spreadMethod="reflect">
        <stop stop-opacity="1" stop-color="rgb(232,238,247)" offset="0%"/>
        <stop stop-opacity="1" stop-color="rgb(183,201,227)" offset="100%"/>
      </linearGradient>
      <linearGradient x1="167.3134" gradientUnits="userSpaceOnUse" x2="467.3134" y1="431.5" y2="531.5" id="linearGradient4" spreadMethod="reflect">
        <stop stop-opacity="1" stop-color="rgb(232,238,247)" offset="0%"/>
        <stop stop-opacity="1" stop-color="rgb(183,201,227)" offset="100%"/>
      </linearGradient>
      <linearGradient x1="-214" gradientUnits="userSpaceOnUse" x2="106" y1="305.5" y2="800.5" id="linearGradient5" spreadMethod="reflect">
        <stop stop-opacity="1" stop-color="rgb(232,238,247)" offset="0%"/>
        <stop stop-opacity="1" stop-color="rgb(183,201,227)" offset="100%"/>
      </linearGradient>
      <clipPath clipPathUnits="userSpaceOnUse" id="clipPath1">
        <path d="M0 0 L723 0 L723 813 L0 813 L0 0 Z"/>
      </clipPath>
      <clipPath clipPathUnits="userSpaceOnUse" id="clipPath2">
        <path d="M-229 3 L494 3 L494 816 L-229 816 L-229 3 Z"/>
      </clipPath>
    </defs>
    <g fill="white" text-rendering="geometricPrecision" shape-rendering="geometricPrecision" transform="translate(229,-3)" stroke="white">
      <rect x="-229" width="723" height="813" y="3" clip-path="url(#clipPath2)" stroke="none"/>
    </g>
    <g fill="url(#linearGradient1)" text-rendering="geometricPrecision" shape-rendering="geometricPrecision" transform="matrix(1,0,0,1,229,-3)" stroke="url(#linearGradient1)">
      <path d="M158.3134 305.5 L478.3134 305.5 L478.3134 800.5 L158.3134 800.5 Z" stroke="none" clip-path="url(#clipPath2)"/>
    </g>
    <g text-rendering="geometricPrecision" stroke-miterlimit="1.45" shape-rendering="geometricPrecision" transform="matrix(1,0,0,1,229,-3)" stroke-linecap="butt">
      <path fill="none" d="M158.3134 305.5 L478.3134 305.5 L478.3134 800.5 L158.3134 800.5 Z" clip-path="url(#clipPath2)"/>
      <text x="256.8633" xml:space="preserve" y="557.5352" clip-path="url(#clipPath2)" font-family="sans-serif" stroke="none">Release 1.12.2-0.3.0</text>
    </g>
    <g fill="url(#linearGradient2)" text-rendering="geometricPrecision" shape-rendering="geometricPrecision" transform="matrix(1,0,0,1,229,-3)" stroke="url(#linearGradient2)">
      <path d="M-68.75 18 L342.25 18 L342.25 265 L-68.75 265 Z" stroke="none" clip-path="url(#clipPath2)"/>
    </g>
    <g text-rendering="geometricPrecision" stroke-miterlimit="1.45" shape-rendering="geometricPrecision" transform="matrix(1,0,0,1,229,-3)" stroke-linecap="butt">
      <path fill="none" d="M-68.75 18 L342.25 18 L342.25 265 L-68.75 265 Z" clip-path="url(#clipPath2)"/>
      <text x="95.2568" xml:space="preserve" y="146.0352" clip-path="url(#clipPath2)" font-family="sans-serif" stroke="none">Todo Diagram</text>
    </g>
    <g fill="url(#linearGradient3)" text-rendering="geometricPrecision" shape-rendering="geometricPrecision" transform="matrix(1,0,0,1,229,-3)" stroke="url(#linearGradient3)">
      <path d="M167.3134 317.5 L419.3134 317.5 L419.3134 417.5 L167.3134 417.5 Z" stroke="none" clip-path="url(#clipPath2)"/>
    </g>
    <g text-rendering="geometricPrecision" stroke-miterlimit="1.45" shape-rendering="geometricPrecision" transform="matrix(1,0,0,1,229,-3)" stroke-linecap="butt">
      <path fill="none" d="M167.3134 317.5 L419.3134 317.5 L419.3134 417.5 L167.3134 417.5 Z" clip-path="url(#clipPath2)"/>
      <text x="230.4746" xml:space="preserve" y="372.0352" clip-path="url(#clipPath2)" font-family="sans-serif" stroke="none">Terrain - 1 Algorithm</text>
    </g>
    <g fill="rgb(255,204,0)" text-rendering="geometricPrecision" shape-rendering="geometricPrecision" transform="matrix(1,0,0,1,229,-3)" stroke="rgb(255,204,0)">
      <rect x="76.75" y="26" clip-path="url(#clipPath2)" width="100" rx="4" ry="4" height="30" stroke="none"/>
    </g>
    <g text-rendering="geometricPrecision" stroke-miterlimit="1.45" shape-rendering="geometricPrecision" transform="matrix(1,0,0,1,229,-3)" stroke-linecap="butt">
      <rect x="76.75" y="26" clip-path="url(#clipPath2)" fill="none" width="100" rx="4" ry="4" height="30"/>
      <text x="99.2285" xml:space="preserve" y="45.5352" clip-path="url(#clipPath2)" font-family="sans-serif" stroke="none">tempcore</text>
    </g>
    <g fill="rgb(255,204,0)" text-rendering="geometricPrecision" shape-rendering="geometricPrecision" transform="matrix(1,0,0,1,229,-3)" stroke="rgb(255,204,0)">
      <rect x="241.25" y="66" clip-path="url(#clipPath2)" width="76" rx="4" ry="4" height="30" stroke="none"/>
    </g>
    <g text-rendering="geometricPrecision" stroke-miterlimit="1.45" shape-rendering="geometricPrecision" transform="matrix(1,0,0,1,229,-3)" stroke-linecap="butt">
      <rect x="241.25" y="66" clip-path="url(#clipPath2)" fill="none" width="76" rx="4" ry="4" height="30"/>
      <text x="247.2051" xml:space="preserve" y="85.5352" clip-path="url(#clipPath2)" font-family="sans-serif" stroke="none">Cull Facing</text>
    </g>
    <g fill="rgb(255,204,0)" text-rendering="geometricPrecision" shape-rendering="geometricPrecision" transform="matrix(1,0,0,1,229,-3)" stroke="rgb(255,204,0)">
      <rect x="-41.75" y="66" clip-path="url(#clipPath2)" width="61" rx="4" ry="4" height="30" stroke="none"/>
    </g>
    <g text-rendering="geometricPrecision" stroke-miterlimit="1.45" shape-rendering="geometricPrecision" transform="matrix(1,0,0,1,229,-3)" stroke-linecap="butt">
      <rect x="-41.75" y="66" clip-path="url(#clipPath2)" fill="none" width="61" rx="4" ry="4" height="30"/>
      <text x="-39.5508" xml:space="preserve" y="85.5352" clip-path="url(#clipPath2)" font-family="sans-serif" stroke="none">Collisions</text>
    </g>
    <g fill="rgb(255,204,0)" text-rendering="geometricPrecision" shape-rendering="geometricPrecision" transform="matrix(1,0,0,1,229,-3)" stroke="rgb(255,204,0)">
      <rect x="76.75" y="92" clip-path="url(#clipPath2)" width="100" rx="4" ry="4" height="30" stroke="none"/>
    </g>
    <g text-rendering="geometricPrecision" stroke-miterlimit="1.45" shape-rendering="geometricPrecision" transform="matrix(1,0,0,1,229,-3)" stroke-linecap="butt">
      <rect x="76.75" y="92" clip-path="url(#clipPath2)" fill="none" width="100" rx="4" ry="4" height="30"/>
      <text x="87.7939" xml:space="preserve" y="111.5352" clip-path="url(#clipPath2)" font-family="sans-serif" stroke="none">Delta patcher</text>
    </g>
    <g fill="rgb(255,204,0)" text-rendering="geometricPrecision" shape-rendering="geometricPrecision" transform="matrix(1,0,0,1,229,-3)" stroke="rgb(255,204,0)">
      <rect x="66.25" y="172" clip-path="url(#clipPath2)" width="121" rx="4" ry="4" height="30" stroke="none"/>
    </g>
    <g text-rendering="geometricPrecision" stroke-miterlimit="1.45" shape-rendering="geometricPrecision" transform="matrix(1,0,0,1,229,-3)" stroke-linecap="butt">
      <rect x="66.25" y="172" clip-path="url(#clipPath2)" fill="none" width="121" rx="4" ry="4" height="30"/>
      <text x="73.1572" xml:space="preserve" y="191.5352" clip-path="url(#clipPath2)" font-family="sans-serif" stroke="none">Extract to libraries</text>
    </g>
    <g fill="rgb(255,204,0)" text-rendering="geometricPrecision" shape-rendering="geometricPrecision" transform="matrix(1,0,0,1,229,-3)" stroke="rgb(255,204,0)">
      <rect x="48" y="226" clip-path="url(#clipPath2)" width="157.5" rx="4" ry="4" height="30" stroke="none"/>
    </g>
    <g text-rendering="geometricPrecision" stroke-miterlimit="1.45" shape-rendering="geometricPrecision" transform="matrix(1,0,0,1,229,-3)" stroke-linecap="butt">
      <rect x="48" y="226" clip-path="url(#clipPath2)" fill="none" width="157.5" rx="4" ry="4" height="30"/>
      <text x="55.3447" xml:space="preserve" y="245.5352" clip-path="url(#clipPath2)" font-family="sans-serif" stroke="none">package inside NoCubes</text>
    </g>
    <g fill="rgb(255,204,0)" text-rendering="geometricPrecision" shape-rendering="geometricPrecision" transform="matrix(1,0,0,1,229,-3)" stroke="rgb(255,204,0)">
      <rect x="178.3134" y="324.5" clip-path="url(#clipPath2)" width="100" rx="4" ry="4" height="30" stroke="none"/>
    </g>
    <g text-rendering="geometricPrecision" stroke-miterlimit="1.45" shape-rendering="geometricPrecision" transform="matrix(1,0,0,1,229,-3)" stroke-linecap="butt">
      <rect x="178.3134" y="324.5" clip-path="url(#clipPath2)" fill="none" width="100" rx="4" ry="4" height="30"/>
      <text x="187.6172" xml:space="preserve" y="344.0352" clip-path="url(#clipPath2)" font-family="sans-serif" stroke="none">Render Terain</text>
    </g>
    <g fill="rgb(255,204,0)" text-rendering="geometricPrecision" shape-rendering="geometricPrecision" transform="matrix(1,0,0,1,229,-3)" stroke="rgb(255,204,0)">
      <rect x="289.3134" y="324.5" clip-path="url(#clipPath2)" width="121" rx="4" ry="4" height="30" stroke="none"/>
    </g>
    <g text-rendering="geometricPrecision" stroke-miterlimit="1.45" shape-rendering="geometricPrecision" transform="matrix(1,0,0,1,229,-3)" stroke-linecap="butt">
      <rect x="289.3134" y="324.5" clip-path="url(#clipPath2)" fill="none" width="121" rx="4" ry="4" height="30"/>
      <text x="298.7959" xml:space="preserve" y="344.0352" clip-path="url(#clipPath2)" font-family="sans-serif" stroke="none">Terrain Collisions</text>
    </g>
    <g fill="url(#linearGradient4)" text-rendering="geometricPrecision" shape-rendering="geometricPrecision" transform="matrix(1,0,0,1,229,-3)" stroke="url(#linearGradient4)">
      <path d="M167.3134 431.5 L467.3134 431.5 L467.3134 531.5 L167.3134 531.5 Z" stroke="none" clip-path="url(#clipPath2)"/>
    </g>
    <g text-rendering="geometricPrecision" stroke-miterlimit="1.45" shape-rendering="geometricPrecision" transform="matrix(1,0,0,1,229,-3)" stroke-linecap="butt">
      <path fill="none" d="M167.3134 431.5 L467.3134 431.5 L467.3134 531.5 L167.3134 531.5 Z" clip-path="url(#clipPath2)"/>
      <text x="255.9306" xml:space="preserve" y="486.0352" clip-path="url(#clipPath2)" font-family="sans-serif" stroke="none">Leaves - 1 Algorithm</text>
    </g>
    <g fill="rgb(255,204,0)" text-rendering="geometricPrecision" shape-rendering="geometricPrecision" transform="matrix(1,0,0,1,229,-3)" stroke="rgb(255,204,0)">
      <rect x="178.3134" y="438.5" clip-path="url(#clipPath2)" width="100" rx="4" ry="4" height="30" stroke="none"/>
    </g>
    <g text-rendering="geometricPrecision" stroke-miterlimit="1.45" shape-rendering="geometricPrecision" transform="matrix(1,0,0,1,229,-3)" stroke-linecap="butt">
      <rect x="178.3134" y="438.5" clip-path="url(#clipPath2)" fill="none" width="100" rx="4" ry="4" height="30"/>
      <text x="186.6181" xml:space="preserve" y="458.0352" clip-path="url(#clipPath2)" font-family="sans-serif" stroke="none">Render Leaves</text>
    </g>
    <g fill="rgb(255,204,0)" text-rendering="geometricPrecision" shape-rendering="geometricPrecision" transform="matrix(1,0,0,1,229,-3)" stroke="rgb(255,204,0)">
      <rect x="291.3134" y="438.5" clip-path="url(#clipPath2)" width="165" rx="4" ry="4" height="30" stroke="none"/>
    </g>
    <g text-rendering="geometricPrecision" stroke-miterlimit="1.45" shape-rendering="geometricPrecision" transform="matrix(1,0,0,1,229,-3)" stroke-linecap="butt">
      <rect x="291.3134" y="438.5" clip-path="url(#clipPath2)" fill="none" width="165" rx="4" ry="4" height="30"/>
      <text x="298.459" xml:space="preserve" y="458.0352" clip-path="url(#clipPath2)" font-family="sans-serif" stroke="none">Random Leaves Collisions</text>
    </g>
    <g fill="rgb(255,204,0)" text-rendering="geometricPrecision" shape-rendering="geometricPrecision" transform="matrix(1,0,0,1,229,-3)" stroke="rgb(255,204,0)">
      <rect x="172.3134" y="575.5" clip-path="url(#clipPath2)" width="100" rx="4" ry="4" height="30" stroke="none"/>
    </g>
    <g text-rendering="geometricPrecision" stroke-miterlimit="1.45" shape-rendering="geometricPrecision" transform="matrix(1,0,0,1,229,-3)" stroke-linecap="butt">
      <rect x="172.3134" y="575.5" clip-path="url(#clipPath2)" fill="none" width="100" rx="4" ry="4" height="30"/>
      <text x="190.2685" xml:space="preserve" y="595.0352" clip-path="url(#clipPath2)" font-family="sans-serif" stroke="none">Cull Facing</text>
    </g>
    <g fill="rgb(255,204,0)" text-rendering="geometricPrecision" shape-rendering="geometricPrecision" transform="matrix(1,0,0,1,229,-3)" stroke="rgb(255,204,0)">
      <rect x="172.3134" y="623.5" clip-path="url(#clipPath2)" width="100" rx="4" ry="4" height="30" stroke="none"/>
    </g>
    <g text-rendering="geometricPrecision" stroke-miterlimit="1.45" shape-rendering="geometricPrecision" transform="matrix(1,0,0,1,229,-3)" stroke-linecap="butt">
      <rect x="172.3134" y="623.5" clip-path="url(#clipPath2)" fill="none" width="100" rx="4" ry="4" height="30"/>
      <text x="183.1523" xml:space="preserve" y="643.0352" clip-path="url(#clipPath2)" font-family="sans-serif" stroke="none">Extend Fluids</text>
    </g>
    <g fill="url(#linearGradient5)" text-rendering="geometricPrecision" shape-rendering="geometricPrecision" transform="matrix(1,0,0,1,229,-3)" stroke="url(#linearGradient5)">
      <path d="M-214 305.5 L106 305.5 L106 800.5 L-214 800.5 Z" stroke="none" clip-path="url(#clipPath2)"/>
    </g>
    <g text-rendering="geometricPrecision" stroke-miterlimit="1.45" shape-rendering="geometricPrecision" transform="matrix(1,0,0,1,229,-3)" stroke-linecap="butt">
      <path fill="none" d="M-214 305.5 L106 305.5 L106 800.5 L-214 800.5 Z" clip-path="url(#clipPath2)"/>
      <text x="-108.8525" xml:space="preserve" y="557.5352" clip-path="url(#clipPath2)" font-family="sans-serif" stroke="none">Collisions Diagram</text>
    </g>
    <g fill="rgb(255,204,0)" text-rendering="geometricPrecision" shape-rendering="geometricPrecision" transform="matrix(1,0,0,1,229,-3)" stroke="rgb(255,204,0)">
      <rect x="-214" y="305.5" clip-path="url(#clipPath2)" width="121" rx="4" ry="4" height="30" stroke="none"/>
    </g>
    <g text-rendering="geometricPrecision" stroke-miterlimit="1.45" shape-rendering="geometricPrecision" transform="matrix(1,0,0,1,229,-3)" stroke-linecap="butt">
      <rect x="-214" y="305.5" clip-path="url(#clipPath2)" fill="none" width="121" rx="4" ry="4" height="30"/>
      <text x="-211.4492" xml:space="preserve" y="325.0352" clip-path="url(#clipPath2)" font-family="sans-serif" stroke="none">Add Collision Boxes</text>
    </g>
    <g fill="rgb(255,204,0)" text-rendering="geometricPrecision" shape-rendering="geometricPrecision" transform="matrix(1,0,0,1,229,-3)" stroke="rgb(255,204,0)">
      <rect x="-109.5" y="354.5" clip-path="url(#clipPath2)" width="100" rx="4" ry="4" height="30" stroke="none"/>
    </g>
    <g text-rendering="geometricPrecision" stroke-miterlimit="1.45" shape-rendering="geometricPrecision" transform="matrix(1,0,0,1,229,-3)" stroke-linecap="butt">
      <rect x="-109.5" y="354.5" clip-path="url(#clipPath2)" fill="none" width="100" rx="4" ry="4" height="30"/>
      <text x="-87.0215" xml:space="preserve" y="374.0352" clip-path="url(#clipPath2)" font-family="sans-serif" stroke="none">tempcore</text>
    </g>
    <g fill="rgb(255,204,0)" text-rendering="geometricPrecision" shape-rendering="geometricPrecision" transform="matrix(1,0,0,1,229,-3)" stroke="rgb(255,204,0)">
      <rect x="-138.25" y="431.5" clip-path="url(#clipPath2)" width="157.5" rx="4" ry="4" height="30" stroke="none"/>
    </g>
    <g text-rendering="geometricPrecision" stroke-miterlimit="1.45" shape-rendering="geometricPrecision" transform="matrix(1,0,0,1,229,-3)" stroke-linecap="butt">
      <rect x="-138.25" y="431.5" clip-path="url(#clipPath2)" fill="none" width="157.5" rx="4" ry="4" height="30"/>
      <text x="-134.6348" xml:space="preserve" y="451.0352" clip-path="url(#clipPath2)" font-family="sans-serif" stroke="none">Add Collision Boxes Hook</text>
    </g>
    <g fill="rgb(255,204,0)" text-rendering="geometricPrecision" shape-rendering="geometricPrecision" transform="matrix(1,0,0,1,229,-3)" stroke="rgb(255,204,0)">
      <rect x="-35.5" y="491.5" clip-path="url(#clipPath2)" width="121" rx="4" ry="4" height="30" stroke="none"/>
    </g>
    <g text-rendering="geometricPrecision" stroke-miterlimit="1.45" shape-rendering="geometricPrecision" transform="matrix(1,0,0,1,229,-3)" stroke-linecap="butt">
      <rect x="-35.5" y="491.5" clip-path="url(#clipPath2)" fill="none" width="121" rx="4" ry="4" height="30"/>
      <text x="-33.7139" xml:space="preserve" y="511.0352" clip-path="url(#clipPath2)" font-family="sans-serif" stroke="none">Generate Block Data</text>
    </g>
    <g fill="rgb(255,204,0)" text-rendering="geometricPrecision" shape-rendering="geometricPrecision" transform="matrix(1,0,0,1,229,-3)" stroke="rgb(255,204,0)">
      <rect x="-35.5" y="581" clip-path="url(#clipPath2)" width="121" rx="4" ry="4" height="30" stroke="none"/>
    </g>
    <g text-rendering="geometricPrecision" stroke-miterlimit="1.45" shape-rendering="geometricPrecision" transform="matrix(1,0,0,1,229,-3)" stroke-linecap="butt">
      <rect x="-35.5" y="581" clip-path="url(#clipPath2)" fill="none" width="121" rx="4" ry="4" height="30"/>
      <text x="-17.791" xml:space="preserve" y="600.5352" clip-path="url(#clipPath2)" font-family="sans-serif" stroke="none">Offset Vertices</text>
    </g>
    <g fill="rgb(255,204,0)" text-rendering="geometricPrecision" shape-rendering="geometricPrecision" transform="matrix(1,0,0,1,229,-3)" stroke="rgb(255,204,0)">
      <rect x="-120" y="641" clip-path="url(#clipPath2)" width="121" rx="4" ry="4" height="30" stroke="none"/>
    </g>
    <g text-rendering="geometricPrecision" stroke-miterlimit="1.45" shape-rendering="geometricPrecision" transform="matrix(1,0,0,1,229,-3)" stroke-linecap="butt">
      <rect x="-120" y="641" clip-path="url(#clipPath2)" fill="none" width="121" rx="4" ry="4" height="30"/>
      <text x="-116.1631" xml:space="preserve" y="660.5352" clip-path="url(#clipPath2)" font-family="sans-serif" stroke="none">Interpolate Vertices</text>
    </g>
    <g fill="rgb(255,204,0)" text-rendering="geometricPrecision" shape-rendering="geometricPrecision" transform="matrix(1,0,0,1,229,-3)" stroke="rgb(255,204,0)">
      <rect x="-138.25" y="701" clip-path="url(#clipPath2)" width="157.5" rx="4" ry="4" height="30" stroke="none"/>
    </g>
    <g text-rendering="geometricPrecision" stroke-miterlimit="1.45" shape-rendering="geometricPrecision" transform="matrix(1,0,0,1,229,-3)" stroke-linecap="butt">
      <rect x="-138.25" y="701" clip-path="url(#clipPath2)" fill="none" width="157.5" rx="4" ry="4" height="30"/>
      <text x="-131.8574" xml:space="preserve" y="720.5352" clip-path="url(#clipPath2)" font-family="sans-serif" stroke="none">Generate Collision Boxes</text>
    </g>
    <g fill="rgb(255,204,0)" text-rendering="geometricPrecision" shape-rendering="geometricPrecision" transform="matrix(1,0,0,1,229,-3)" stroke="rgb(255,204,0)">
      <rect x="-214" y="770.5" clip-path="url(#clipPath2)" width="121" rx="4" ry="4" height="30" stroke="none"/>
    </g>
    <g text-rendering="geometricPrecision" stroke-miterlimit="1.45" shape-rendering="geometricPrecision" transform="matrix(1,0,0,1,229,-3)" stroke-linecap="butt">
      <rect x="-214" y="770.5" clip-path="url(#clipPath2)" fill="none" width="121" rx="4" ry="4" height="30"/>
      <text x="-206.041" xml:space="preserve" y="790.0352" clip-path="url(#clipPath2)" font-family="sans-serif" stroke="none">Collisions Happen</text>
      <path fill="none" d="M176.2306 53.9785 L233.5083 69.0022" clip-path="url(#clipPath2)"/>
      <path d="M241.2465 71.0319 L230.9077 63.1509 L232.541 68.7485 L228.3706 72.8237 Z" clip-path="url(#clipPath2)" stroke="none"/>
      <path fill="none" d="M78.2007 55.0723 L26.964 69.9235" clip-path="url(#clipPath2)"/>
      <path d="M19.2803 72.1506 L32.1979 73.6122 L27.9245 69.6451 L29.4139 64.0076 Z" clip-path="url(#clipPath2)" stroke="none"/>
      <path fill="none" d="M241.2367 87.481 L184.6403 97.1302" clip-path="url(#clipPath2)"/>
      <path d="M176.7541 98.4747 L189.4237 101.3868 L185.6261 96.9621 L187.743 91.529 Z" clip-path="url(#clipPath2)" stroke="none"/>
      <path fill="none" d="M19.2407 86.7446 L68.8871 96.0983" clip-path="url(#clipPath2)"/>
      <path d="M76.7487 97.5795 L65.882 90.4441 L67.9044 95.9131 L64.0305 100.2712 Z" clip-path="url(#clipPath2)" stroke="none"/>
      <path fill="none" d="M126.75 121.9609 L126.75 163.9788" clip-path="url(#clipPath2)"/>
      <path d="M126.75 171.9788 L131.75 159.9788 L126.75 162.9788 L121.75 159.9788 Z" clip-path="url(#clipPath2)" stroke="none"/>
      <path fill="none" d="M126.75 202.0029 L126.75 218.0334" clip-path="url(#clipPath2)"/>
      <path d="M126.75 226.0334 L131.75 214.0334 L126.75 217.0334 L121.75 214.0334 Z" clip-path="url(#clipPath2)" stroke="none"/>
      <path fill="none" d="M-124.7446 335.4895 L-95.3616 350.8062" clip-path="url(#clipPath2)"/>
      <path d="M-88.2675 354.5042 L-96.5974 344.5235 L-96.2483 350.344 L-101.2198 353.391 Z" clip-path="url(#clipPath2)" stroke="none"/>
      <path fill="none" d="M-59.5 384.5015 L-59.5 423.515" clip-path="url(#clipPath2)"/>
      <path d="M-59.5 431.515 L-54.5 419.515 L-59.5 422.515 L-64.5 419.515 Z" clip-path="url(#clipPath2)" stroke="none"/>
      <path fill="none" d="M-38.3956 461.4854 L-2.6651 486.8562" clip-path="url(#clipPath2)"/>
      <path d="M3.8578 491.4878 L-3.0318 480.4636 L-3.4804 486.2772 L-8.8213 488.6172 Z" clip-path="url(#clipPath2)" stroke="none"/>
      <path fill="none" d="M25 521.4895 L25 572.9742" clip-path="url(#clipPath2)"/>
      <path d="M25 580.9742 L30 568.9742 L25 571.9742 L20 568.9742 Z" clip-path="url(#clipPath2)" stroke="none"/>
      <path fill="none" d="M3.8956 610.9854 L-31.8349 636.3561" clip-path="url(#clipPath2)"/>
      <path d="M-38.3578 640.9878 L-25.6787 638.1171 L-31.0196 635.7772 L-31.4683 629.9635 Z" clip-path="url(#clipPath2)" stroke="none"/>
      <path fill="none" d="M-59.5 670.9707 L-59.5 693.0049" clip-path="url(#clipPath2)"/>
      <path d="M-59.5 701.0049 L-54.5 689.0049 L-59.5 692.0049 L-64.5 689.0049 Z" clip-path="url(#clipPath2)" stroke="none"/>
      <path fill="none" d="M-79.8101 731.0165 L-126.8098 765.7662" clip-path="url(#clipPath2)"/>
      <path d="M-133.2424 770.5223 L-120.6208 767.4086 L-126.0057 765.1718 L-126.566 759.3677 Z" clip-path="url(#clipPath2)" stroke="none"/>
    </g>
  </g>
</svg>
