<?xml version="1.0" encoding="UTF-8"?><svg xmlns="http://www.w3.org/2000/svg" xmlns:xlink="http://www.w3.org/1999/xlink" fill-opacity="1" color-rendering="auto" color-interpolation="auto" text-rendering="auto" stroke="black" stroke-linecap="square" width="772" stroke-miterlimit="10" shape-rendering="auto" stroke-opacity="1" fill="black" stroke-dasharray="none" font-weight="normal" stroke-width="1" height="544" font-family="'Dialog'" font-style="normal" stroke-linejoin="miter" font-size="12px" stroke-dashoffset="0" image-rendering="auto">
  <!--Generated by ySVG 2.5-->
  <defs id="genericDefs"/>
  <g>
    <defs id="defs1">
      <clipPath clipPathUnits="userSpaceOnUse" id="clipPath1">
        <path d="M0 0 L772 0 L772 544 L0 544 L0 0 Z"/>
      </clipPath>
      <clipPath clipPathUnits="userSpaceOnUse" id="clipPath2">
        <path d="M53 -5 L825 -5 L825 539 L53 539 L53 -5 Z"/>
      </clipPath>
    </defs>
    <g fill="white" text-rendering="geometricPrecision" shape-rendering="geometricPrecision" transform="translate(-53,5)" stroke="white">
      <rect x="53" width="772" height="544" y="-5" clip-path="url(#clipPath2)" stroke="none"/>
    </g>
    <g fill="rgb(255,204,0)" text-rendering="geometricPrecision" shape-rendering="geometricPrecision" transform="matrix(1,0,0,1,-53,5)" stroke="rgb(255,204,0)">
      <rect x="312" y="10" clip-path="url(#clipPath2)" width="171" rx="4" ry="4" height="30" stroke="none"/>
    </g>
    <g text-rendering="geometricPrecision" stroke-miterlimit="1.45" shape-rendering="geometricPrecision" transform="matrix(1,0,0,1,-53,5)" stroke-linecap="butt">
      <rect x="312" y="10" clip-path="url(#clipPath2)" fill="none" width="171" rx="4" ry="4" height="30"/>
      <text x="316.251" xml:space="preserve" y="29.5352" clip-path="url(#clipPath2)" font-family="sans-serif" stroke="none">Rewrite Coremod for 1.13.2</text>
    </g>
    <g fill="rgb(255,204,0)" text-rendering="geometricPrecision" shape-rendering="geometricPrecision" transform="matrix(1,0,0,1,-53,5)" stroke="rgb(255,204,0)">
      <rect x="306" y="90" clip-path="url(#clipPath2)" width="183" rx="4" ry="4" height="30" stroke="none"/>
    </g>
    <g text-rendering="geometricPrecision" stroke-miterlimit="1.45" shape-rendering="geometricPrecision" transform="matrix(1,0,0,1,-53,5)" stroke-linecap="butt">
      <rect x="306" y="90" clip-path="url(#clipPath2)" fill="none" width="183" rx="4" ry="4" height="30"/>
      <text x="312.6006" xml:space="preserve" y="109.5352" clip-path="url(#clipPath2)" font-family="sans-serif" stroke="none">Get something basic working</text>
    </g>
    <g fill="rgb(255,204,0)" text-rendering="geometricPrecision" shape-rendering="geometricPrecision" transform="matrix(1,0,0,1,-53,5)" stroke="rgb(255,204,0)">
      <rect x="326.5" y="175" clip-path="url(#clipPath2)" width="142" rx="4" ry="4" height="30" stroke="none"/>
    </g>
    <g text-rendering="geometricPrecision" stroke-miterlimit="1.45" shape-rendering="geometricPrecision" transform="matrix(1,0,0,1,-53,5)" stroke-linecap="butt">
      <rect x="326.5" y="175" clip-path="url(#clipPath2)" fill="none" width="142" rx="4" ry="4" height="30"/>
      <text x="331.998" xml:space="preserve" y="194.5352" clip-path="url(#clipPath2)" font-family="sans-serif" stroke="none">Add back OldNoCubes</text>
    </g>
    <g fill="rgb(255,204,0)" text-rendering="geometricPrecision" shape-rendering="geometricPrecision" transform="matrix(1,0,0,1,-53,5)" stroke="rgb(255,204,0)">
      <rect x="319.25" y="377" clip-path="url(#clipPath2)" width="156.5" rx="4" ry="4" height="30" stroke="none"/>
    </g>
    <g text-rendering="geometricPrecision" stroke-miterlimit="1.45" shape-rendering="geometricPrecision" transform="matrix(1,0,0,1,-53,5)" stroke-linecap="butt">
      <rect x="319.25" y="377" clip-path="url(#clipPath2)" fill="none" width="156.5" rx="4" ry="4" height="30"/>
      <text x="324.085" xml:space="preserve" y="396.5352" clip-path="url(#clipPath2)" font-family="sans-serif" stroke="none">Extended Fluid rendering</text>
    </g>
    <g fill="rgb(255,204,0)" text-rendering="geometricPrecision" shape-rendering="geometricPrecision" transform="matrix(1,0,0,1,-53,5)" stroke="rgb(255,204,0)">
      <rect x="68.5" y="377" clip-path="url(#clipPath2)" width="183" rx="4" ry="4" height="30" stroke="none"/>
    </g>
    <g text-rendering="geometricPrecision" stroke-miterlimit="1.45" shape-rendering="geometricPrecision" transform="matrix(1,0,0,1,-53,5)" stroke-linecap="butt">
      <rect x="68.5" y="377" clip-path="url(#clipPath2)" fill="none" width="183" rx="4" ry="4" height="30"/>
      <text x="83.3359" xml:space="preserve" y="396.5352" clip-path="url(#clipPath2)" font-family="sans-serif" stroke="none">Fix shouldSideBeRendered</text>
    </g>
    <g fill="rgb(255,204,0)" text-rendering="geometricPrecision" shape-rendering="geometricPrecision" transform="matrix(1,0,0,1,-53,5)" stroke="rgb(255,204,0)">
      <rect x="534" y="68" clip-path="url(#clipPath2)" width="276" rx="4" ry="4" height="30" stroke="none"/>
    </g>
    <g text-rendering="geometricPrecision" stroke-miterlimit="1.45" shape-rendering="geometricPrecision" transform="matrix(1,0,0,1,-53,5)" stroke-linecap="butt">
      <rect x="534" y="68" clip-path="url(#clipPath2)" fill="none" width="276" rx="4" ry="4" height="30"/>
      <text x="545.6367" xml:space="preserve" y="87.5352" clip-path="url(#clipPath2)" font-family="sans-serif" stroke="none">License is now GPLv3, update it everywhere</text>
    </g>
    <g fill="rgb(255,204,0)" text-rendering="geometricPrecision" shape-rendering="geometricPrecision" transform="matrix(1,0,0,1,-53,5)" stroke="rgb(255,204,0)">
      <rect x="534" y="377" clip-path="url(#clipPath2)" width="196" rx="4" ry="4" height="30" stroke="none"/>
    </g>
    <g text-rendering="geometricPrecision" stroke-miterlimit="1.45" shape-rendering="geometricPrecision" transform="matrix(1,0,0,1,-53,5)" stroke-linecap="butt">
      <rect x="534" y="377" clip-path="url(#clipPath2)" fill="none" width="196" rx="4" ry="4" height="30"/>
      <text x="548.5918" xml:space="preserve" y="396.5352" clip-path="url(#clipPath2)" font-family="sans-serif" stroke="none">Fix BlockState parsing errors</text>
    </g>
    <g fill="rgb(255,204,0)" text-rendering="geometricPrecision" shape-rendering="geometricPrecision" transform="matrix(1,0,0,1,-53,5)" stroke="rgb(255,204,0)">
      <rect x="269" y="270" clip-path="url(#clipPath2)" width="257" rx="4" ry="4" height="30" stroke="none"/>
    </g>
    <g text-rendering="geometricPrecision" stroke-miterlimit="1.45" shape-rendering="geometricPrecision" transform="matrix(1,0,0,1,-53,5)" stroke-linecap="butt">
      <rect x="269" y="270" clip-path="url(#clipPath2)" fill="none" width="257" rx="4" ry="4" height="30"/>
      <text x="279.5566" xml:space="preserve" y="289.5352" clip-path="url(#clipPath2)" font-family="sans-serif" stroke="none">oh god the gc kills, bring back the pools</text>
    </g>
    <g fill="rgb(255,204,0)" text-rendering="geometricPrecision" shape-rendering="geometricPrecision" transform="matrix(1,0,0,1,-53,5)" stroke="rgb(255,204,0)">
      <rect x="487" y="494" clip-path="url(#clipPath2)" width="250" rx="4" ry="4" height="30" stroke="none"/>
    </g>
    <g text-rendering="geometricPrecision" stroke-miterlimit="1.45" shape-rendering="geometricPrecision" transform="matrix(1,0,0,1,-53,5)" stroke-linecap="butt">
      <rect x="487" y="494" clip-path="url(#clipPath2)" fill="none" width="250" rx="4" ry="4" height="30"/>
      <text x="497.1475" xml:space="preserve" y="513.5352" clip-path="url(#clipPath2)" font-family="sans-serif" stroke="none">Make the 1.13 and 1.14 NoCubes icons</text>
    </g>
    <g fill="rgb(255,204,0)" text-rendering="geometricPrecision" shape-rendering="geometricPrecision" transform="matrix(1,0,0,1,-53,5)" stroke="rgb(255,204,0)">
      <rect x="107.6667" y="57" clip-path="url(#clipPath2)" width="143.8333" rx="4" ry="4" height="30" stroke="none"/>
    </g>
    <g text-rendering="geometricPrecision" stroke-miterlimit="1.45" shape-rendering="geometricPrecision" transform="matrix(1,0,0,1,-53,5)" stroke-linecap="butt">
      <rect x="107.6667" y="57" clip-path="url(#clipPath2)" fill="none" width="143.8333" rx="4" ry="4" height="30"/>
      <text x="123.474" xml:space="preserve" y="76.5352" clip-path="url(#clipPath2)" font-family="sans-serif" stroke="none">Fix website discord</text>
    </g>
    <g fill="rgb(255,204,0)" text-rendering="geometricPrecision" shape-rendering="geometricPrecision" transform="matrix(1,0,0,1,-53,5)" stroke="rgb(255,204,0)">
      <rect x="68.5" y="477" clip-path="url(#clipPath2)" width="250" rx="4" ry="4" height="47" stroke="none"/>
    </g>
    <g text-rendering="geometricPrecision" stroke-miterlimit="1.45" shape-rendering="geometricPrecision" transform="matrix(1,0,0,1,-53,5)" stroke-linecap="butt">
      <rect x="68.5" y="477" clip-path="url(#clipPath2)" fill="none" width="250" rx="4" ry="4" height="47"/>
      <text x="110.0918" xml:space="preserve" y="497.9688" clip-path="url(#clipPath2)" font-family="sans-serif" stroke="none">Fix BlockState parsing errors</text>
      <text x="76.3066" xml:space="preserve" y="512.1016" clip-path="url(#clipPath2)" font-family="sans-serif" stroke="none">Catch &amp; continue, don’t catch and break</text>
      <path fill="none" d="M397.5 39.9609 L397.5 81.9788" clip-path="url(#clipPath2)"/>
      <path d="M397.5 89.9788 L402.5 77.9788 L397.5 80.9788 L392.5 77.9788 Z" clip-path="url(#clipPath2)" stroke="none"/>
      <path fill="none" d="M397.5 119.9829 L397.5 166.9915" clip-path="url(#clipPath2)"/>
      <path d="M397.5 174.9915 L402.5 162.9915 L397.5 165.9915 L392.5 162.9915 Z" clip-path="url(#clipPath2)" stroke="none"/>
      <path fill="none" d="M468.5041 40.0027 L593.2026 66.3506" clip-path="url(#clipPath2)"/>
      <path d="M601.0298 68.0045 L590.3227 60.6317 L592.2242 66.1439 L588.2554 70.4157 Z" clip-path="url(#clipPath2)" stroke="none"/>
      <path fill="none" d="M397.5 204.9829 L397.5 262.0359" clip-path="url(#clipPath2)"/>
      <path d="M397.5 270.0359 L402.5 258.0359 L397.5 261.0359 L392.5 258.0359 Z" clip-path="url(#clipPath2)" stroke="none"/>
      <path fill="none" d="M430.3907 300.0077 L591.8668 373.6876" clip-path="url(#clipPath2)"/>
      <path d="M599.145 377.0086 L590.3033 367.4783 L590.957 373.2725 L586.1522 376.576 Z" clip-path="url(#clipPath2)" stroke="none"/>
      <path fill="none" d="M397.5 300.0208 L397.5 369.0444" clip-path="url(#clipPath2)"/>
      <path d="M397.5 377.0444 L402.5 365.0444 L397.5 368.0444 L392.5 365.0444 Z" clip-path="url(#clipPath2)" stroke="none"/>
      <path fill="none" d="M364.1885 300.0077 L200.5693 373.7225" clip-path="url(#clipPath2)"/>
      <path d="M193.2754 377.0086 L206.2701 376.6381 L201.481 373.3117 L202.1624 367.5207 Z" clip-path="url(#clipPath2)" stroke="none"/>
      <path fill="none" d="M411.8751 300.0117 L592.127 488.2468" clip-path="url(#clipPath2)"/>
      <path d="M597.66 494.0249 L592.9718 481.8997 L591.4354 487.5246 L585.7492 488.8159 Z" clip-path="url(#clipPath2)" stroke="none"/>
      <path fill="none" d="M327.938 40.0031 L256.329 55.4476" clip-path="url(#clipPath2)"/>
      <path d="M248.5088 57.1342 L261.2933 59.4919 L257.3065 55.2368 L259.1849 49.7166 Z" clip-path="url(#clipPath2)" stroke="none"/>
      <path fill="none" d="M383.2808 300.0208 L221.2628 471.1721" clip-path="url(#clipPath2)"/>
      <path d="M215.7631 476.9819 L227.6438 471.7046 L221.9503 470.4459 L220.3816 464.8299 Z" clip-path="url(#clipPath2)" stroke="none"/>
    </g>
  </g>
</svg>
