<?xml version="1.0" encoding="UTF-8"?><svg xmlns="http://www.w3.org/2000/svg" xmlns:xlink="http://www.w3.org/1999/xlink" fill-opacity="1" color-rendering="auto" color-interpolation="auto" text-rendering="auto" stroke="black" stroke-linecap="square" width="3652" stroke-miterlimit="10" shape-rendering="auto" stroke-opacity="1" fill="black" stroke-dasharray="none" font-weight="normal" stroke-width="1" height="2138" font-family="'Dialog'" font-style="normal" stroke-linejoin="miter" font-size="12px" stroke-dashoffset="0" image-rendering="auto">
  <!--Generated by ySVG 2.5-->
  <defs id="genericDefs"/>
  <g>
    <defs id="defs1">
      <clipPath clipPathUnits="userSpaceOnUse" id="clipPath1">
        <path d="M0 0 L3652 0 L3652 2138 L0 2138 L0 0 Z"/>
      </clipPath>
      <clipPath clipPathUnits="userSpaceOnUse" id="clipPath2">
        <path d="M-766 -1055 L2886 -1055 L2886 1083 L-766 1083 L-766 -1055 Z"/>
      </clipPath>
    </defs>
    <g fill="white" text-rendering="geometricPrecision" shape-rendering="geometricPrecision" transform="translate(766,1055)" stroke="white">
      <rect x="-766" width="3652" height="2138" y="-1055" clip-path="url(#clipPath2)" stroke="none"/>
    </g>
    <g fill="rgb(255,204,0)" text-rendering="geometricPrecision" shape-rendering="geometricPrecision" transform="matrix(1,0,0,1,766,1055)" stroke="rgb(255,204,0)">
      <rect x="-112.5466" width="965.1931" height="77.9864" y="989.0638" clip-path="url(#clipPath2)" stroke="none"/>
      <rect x="-112.5466" y="989.0638" clip-path="url(#clipPath2)" fill="yellow" width="1" height="77.9864" stroke="none"/>
      <rect x="-111.5466" y="989.0638" clip-path="url(#clipPath2)" fill="yellow" width="963.1931" height="1" stroke="none"/>
      <rect x="-111.5466" y="1066.0502" clip-path="url(#clipPath2)" fill="rgb(178,142,0)" width="964.1931" height="1" stroke="none"/>
      <rect x="851.6465" y="989.0638" clip-path="url(#clipPath2)" fill="rgb(178,142,0)" width="1" height="76.9864" stroke="none"/>
    </g>
    <g text-rendering="geometricPrecision" stroke-miterlimit="1.45" shape-rendering="geometricPrecision" font-family="sans-serif" transform="matrix(1,0,0,1,766,1055)" stroke-linecap="butt">
      <text x="342.3644" xml:space="preserve" y="1032.7709" clip-path="url(#clipPath2)" stroke="none">Rendering</text>
    </g>
    <g fill="rgb(255,204,0)" text-rendering="geometricPrecision" shape-rendering="geometricPrecision" transform="matrix(1,0,0,1,766,1055)" stroke="rgb(255,204,0)">
      <rect x="1057.6777" width="175" height="77.9864" y="989.0638" clip-path="url(#clipPath2)" stroke="none"/>
      <rect x="1057.6777" y="989.0638" clip-path="url(#clipPath2)" fill="yellow" width="1" height="77.9864" stroke="none"/>
      <rect x="1058.6777" y="989.0638" clip-path="url(#clipPath2)" fill="yellow" width="173" height="1" stroke="none"/>
      <rect x="1058.6777" y="1066.0502" clip-path="url(#clipPath2)" fill="rgb(178,142,0)" width="174" height="1" stroke="none"/>
      <rect x="1231.6777" y="989.0638" clip-path="url(#clipPath2)" fill="rgb(178,142,0)" width="1" height="76.9864" stroke="none"/>
    </g>
    <g text-rendering="geometricPrecision" stroke-miterlimit="1.45" shape-rendering="geometricPrecision" font-family="sans-serif" transform="matrix(1,0,0,1,766,1055)" stroke-linecap="butt">
      <text x="1119.502" xml:space="preserve" y="1032.7709" clip-path="url(#clipPath2)" stroke="none">Collisions</text>
    </g>
    <g fill="rgb(255,204,0)" text-rendering="geometricPrecision" shape-rendering="geometricPrecision" transform="matrix(1,0,0,1,766,1055)" stroke="rgb(255,204,0)">
      <rect x="-96.5965" width="965.1931" height="77.9864" y="-1039.7538" clip-path="url(#clipPath2)" stroke="none"/>
      <rect x="-96.5965" y="-1039.7538" clip-path="url(#clipPath2)" fill="yellow" width="1" height="77.9864" stroke="none"/>
      <rect x="-95.5965" y="-1039.7538" clip-path="url(#clipPath2)" fill="yellow" width="963.1931" height="1" stroke="none"/>
      <rect x="-95.5965" y="-962.7675" clip-path="url(#clipPath2)" fill="rgb(178,142,0)" width="964.1931" height="1" stroke="none"/>
      <rect x="867.5965" y="-1039.7538" clip-path="url(#clipPath2)" fill="rgb(178,142,0)" width="1" height="76.9864" stroke="none"/>
    </g>
    <g text-rendering="geometricPrecision" stroke-miterlimit="1.45" shape-rendering="geometricPrecision" font-family="sans-serif" transform="matrix(1,0,0,1,766,1055)" stroke-linecap="butt">
      <text x="169.6221" xml:space="preserve" y="-996.0468" clip-path="url(#clipPath2)" stroke="none">"Vanilla model" modded only by Forge or Liteloader or Partial Modification Loader</text>
    </g>
    <g fill="fuchsia" text-rendering="geometricPrecision" shape-rendering="geometricPrecision" transform="matrix(1,0,0,1,766,1055)" stroke="fuchsia">
      <rect x="-96.5965" width="965.1931" height="157.0813" y="-705.6963" clip-path="url(#clipPath2)" stroke="none"/>
      <rect x="-96.5965" width="1" height="157.0813" y="-705.6963" clip-path="url(#clipPath2)" stroke="none"/>
      <rect x="-95.5965" width="963.1931" height="1" y="-705.6963" clip-path="url(#clipPath2)" stroke="none"/>
      <rect x="-95.5965" y="-549.6151" clip-path="url(#clipPath2)" fill="rgb(178,0,178)" width="964.1931" height="1" stroke="none"/>
      <rect x="867.5965" y="-705.6963" clip-path="url(#clipPath2)" fill="rgb(178,0,178)" width="1" height="156.0813" stroke="none"/>
    </g>
    <g text-rendering="geometricPrecision" stroke-miterlimit="1.45" shape-rendering="geometricPrecision" font-family="sans-serif" transform="matrix(1,0,0,1,766,1055)" stroke-linecap="butt">
      <text x="187.3848" xml:space="preserve" y="-673.8959" clip-path="url(#clipPath2)" stroke="none">An Utility mod do a backup of the "vanilla model" to a new "dummy model".</text>
      <text x="269.8965" xml:space="preserve" y="-659.1948" clip-path="url(#clipPath2)" stroke="none">For example let's name it "The Drill Utilities"</text>
      <text x="281.1172" xml:space="preserve" y="-644.4936" clip-path="url(#clipPath2)" stroke="none">&gt; This mod will always be loaded after :</text>
      <text x="361.6514" xml:space="preserve" y="-629.7924" clip-path="url(#clipPath2)" stroke="none">&gt;&gt; Forge</text>
      <text x="348.9688" xml:space="preserve" y="-615.0912" clip-path="url(#clipPath2)" stroke="none">&gt;&gt; LiteLoader</text>
      <text x="306.2861" xml:space="preserve" y="-600.3901" clip-path="url(#clipPath2)" stroke="none">&gt;&gt; Partial Modification Loader</text>
      <text x="341.6387" xml:space="preserve" y="-585.6889" clip-path="url(#clipPath2)" stroke="none">&gt;&gt; Or equivalent</text>
      <text x="195.7285" xml:space="preserve" y="-570.9877" clip-path="url(#clipPath2)" stroke="none">&gt; This mod will always be loaded before the things that are coming next</text>
    </g>
    <g fill="rgb(51,204,204)" text-rendering="geometricPrecision" shape-rendering="geometricPrecision" transform="matrix(1,0,0,1,766,1055)" stroke="rgb(51,204,204)">
      <rect x="-679.4123" width="434.649" height="77.9864" y="-1039.7538" clip-path="url(#clipPath2)" stroke="none"/>
      <rect x="-679.4123" y="-1039.7538" clip-path="url(#clipPath2)" fill="rgb(72,255,255)" width="1" height="77.9864" stroke="none"/>
      <rect x="-678.4123" y="-1039.7538" clip-path="url(#clipPath2)" fill="rgb(72,255,255)" width="432.649" height="1" stroke="none"/>
      <rect x="-678.4123" y="-962.7675" clip-path="url(#clipPath2)" fill="rgb(35,142,142)" width="433.649" height="1" stroke="none"/>
      <rect x="-245.7633" y="-1039.7538" clip-path="url(#clipPath2)" fill="rgb(35,142,142)" width="1" height="76.9864" stroke="none"/>
    </g>
    <g text-rendering="geometricPrecision" stroke-miterlimit="1.45" shape-rendering="geometricPrecision" font-family="sans-serif" transform="matrix(1,0,0,1,766,1055)" stroke-linecap="butt">
      <text x="-583.5526" xml:space="preserve" y="-996.0468" clip-path="url(#clipPath2)" stroke="none">Let's create a "Customisable Model Manager"</text>
    </g>
    <g fill="rgb(51,204,204)" text-rendering="geometricPrecision" shape-rendering="geometricPrecision" transform="matrix(1,0,0,1,766,1055)" stroke="rgb(51,204,204)">
      <rect x="-750.5977" width="577.0198" height="77.9864" y="-896.4738" clip-path="url(#clipPath2)" stroke="none"/>
      <rect x="-750.5977" y="-896.4738" clip-path="url(#clipPath2)" fill="rgb(72,255,255)" width="1" height="77.9864" stroke="none"/>
      <rect x="-749.5977" y="-896.4738" clip-path="url(#clipPath2)" fill="rgb(72,255,255)" width="575.0198" height="1" stroke="none"/>
      <rect x="-749.5977" y="-819.4874" clip-path="url(#clipPath2)" fill="rgb(35,142,142)" width="576.0198" height="1" stroke="none"/>
      <rect x="-174.5779" y="-896.4738" clip-path="url(#clipPath2)" fill="rgb(35,142,142)" width="1" height="76.9864" stroke="none"/>
    </g>
    <g text-rendering="geometricPrecision" stroke-miterlimit="1.45" shape-rendering="geometricPrecision" font-family="sans-serif" transform="matrix(1,0,0,1,766,1055)" stroke-linecap="butt">
      <text x="-735.9608" xml:space="preserve" y="-852.7668" clip-path="url(#clipPath2)" stroke="none">Let's create a dummy model (everything null inside) trough the previous "Cusomisable Model manager"</text>
    </g>
    <g fill="rgb(0,204,255)" text-rendering="geometricPrecision" shape-rendering="geometricPrecision" transform="matrix(1,0,0,1,766,1055)" stroke="rgb(0,204,255)">
      <rect x="385.9863" width="577.0198" height="77.9864" y="-221.0867" clip-path="url(#clipPath2)" stroke="none"/>
      <rect x="385.9863" y="-221.0867" clip-path="url(#clipPath2)" fill="aqua" width="1" height="77.9864" stroke="none"/>
      <rect x="386.9863" y="-221.0867" clip-path="url(#clipPath2)" fill="aqua" width="575.0198" height="1" stroke="none"/>
      <rect x="386.9863" y="-144.1003" clip-path="url(#clipPath2)" fill="rgb(0,142,178)" width="576.0198" height="1" stroke="none"/>
      <rect x="962.0061" y="-221.0867" clip-path="url(#clipPath2)" fill="rgb(0,142,178)" width="1" height="76.9864" stroke="none"/>
    </g>
    <g text-rendering="geometricPrecision" stroke-miterlimit="1.45" shape-rendering="geometricPrecision" font-family="sans-serif" transform="matrix(1,0,0,1,766,1055)" stroke-linecap="butt">
      <text x="492.255" xml:space="preserve" y="-177.3796" clip-path="url(#clipPath2)" stroke="none">Let's create a copy of the Vanilla model (that was previously backup)</text>
    </g>
    <g fill="rgb(0,204,255)" text-rendering="geometricPrecision" shape-rendering="geometricPrecision" transform="matrix(1,0,0,1,766,1055)" stroke="rgb(0,204,255)">
      <rect x="385.9863" width="577.0198" height="77.9864" y="-12.7256" clip-path="url(#clipPath2)" stroke="none"/>
      <rect x="385.9863" y="-12.7256" clip-path="url(#clipPath2)" fill="aqua" width="1" height="77.9864" stroke="none"/>
      <rect x="386.9863" y="-12.7256" clip-path="url(#clipPath2)" fill="aqua" width="575.0198" height="1" stroke="none"/>
      <rect x="386.9863" y="64.2608" clip-path="url(#clipPath2)" fill="rgb(0,142,178)" width="576.0198" height="1" stroke="none"/>
      <rect x="962.0061" y="-12.7256" clip-path="url(#clipPath2)" fill="rgb(0,142,178)" width="1" height="76.9864" stroke="none"/>
    </g>
    <g text-rendering="geometricPrecision" stroke-miterlimit="1.45" shape-rendering="geometricPrecision" font-family="sans-serif" transform="matrix(1,0,0,1,766,1055)" stroke-linecap="butt">
      <text x="428.382" xml:space="preserve" y="23.6309" clip-path="url(#clipPath2)" stroke="none">A mod like No Cubes will only edit the vertices and peaks of this model trough the CTM mod.</text>
      <text x="460.2306" xml:space="preserve" y="38.332" clip-path="url(#clipPath2)" stroke="none">All those customisation will be stored into a new "dummy model" from "The Drill".</text>
    </g>
    <g fill="rgb(0,204,255)" text-rendering="geometricPrecision" shape-rendering="geometricPrecision" transform="matrix(1,0,0,1,766,1055)" stroke="rgb(0,204,255)">
      <rect x="97.4901" width="577.0198" height="102.608" y="-448.4657" clip-path="url(#clipPath2)" stroke="none"/>
      <rect x="97.4901" y="-448.4657" clip-path="url(#clipPath2)" fill="aqua" width="1" height="102.608" stroke="none"/>
      <rect x="98.4901" y="-448.4657" clip-path="url(#clipPath2)" fill="aqua" width="575.0198" height="1" stroke="none"/>
      <rect x="98.4901" y="-346.8577" clip-path="url(#clipPath2)" fill="rgb(0,142,178)" width="576.0198" height="1" stroke="none"/>
      <rect x="673.5099" y="-448.4657" clip-path="url(#clipPath2)" fill="rgb(0,142,178)" width="1" height="101.608" stroke="none"/>
    </g>
    <g text-rendering="geometricPrecision" stroke-miterlimit="1.45" shape-rendering="geometricPrecision" font-family="sans-serif" transform="matrix(1,0,0,1,766,1055)" stroke-linecap="butt">
      <text x="230.917" xml:space="preserve" y="-429.2008" clip-path="url(#clipPath2)" stroke="none">Examples for the following magical things that will happen.</text>
      <text x="162.5586" xml:space="preserve" y="-414.4996" clip-path="url(#clipPath2)" stroke="none">For this example we will take the models of those like grass or the ones of the fluids.</text>
      <text x="217.9268" xml:space="preserve" y="-399.7984" clip-path="url(#clipPath2)" stroke="none">By fluids I mean air, water, lava, or equivalent from other mods.</text>
      <text x="320.9756" xml:space="preserve" y="-385.0973" clip-path="url(#clipPath2)" stroke="none">Now we take two mods :</text>
      <text x="272.4365" xml:space="preserve" y="-370.3961" clip-path="url(#clipPath2)" stroke="none">&gt; The Seasons Mod by The_WeatherPony</text>
      <text x="285.1133" xml:space="preserve" y="-355.6949" clip-path="url(#clipPath2)" stroke="none">&gt; The No Cubes mod by a lot of guys.</text>
    </g>
    <g fill="rgb(0,204,255)" text-rendering="geometricPrecision" shape-rendering="geometricPrecision" transform="matrix(1,0,0,1,766,1055)" stroke="rgb(0,204,255)">
      <rect x="-266.1138" width="577.0198" height="77.9864" y="-12.7256" clip-path="url(#clipPath2)" stroke="none"/>
      <rect x="-266.1138" y="-12.7256" clip-path="url(#clipPath2)" fill="aqua" width="1" height="77.9864" stroke="none"/>
      <rect x="-265.1138" y="-12.7256" clip-path="url(#clipPath2)" fill="aqua" width="575.0198" height="1" stroke="none"/>
      <rect x="-265.1138" y="64.2608" clip-path="url(#clipPath2)" fill="rgb(0,142,178)" width="576.0198" height="1" stroke="none"/>
      <rect x="309.906" y="-12.7256" clip-path="url(#clipPath2)" fill="rgb(0,142,178)" width="1" height="76.9864" stroke="none"/>
    </g>
    <g text-rendering="geometricPrecision" stroke-miterlimit="1.45" shape-rendering="geometricPrecision" font-family="sans-serif" transform="matrix(1,0,0,1,766,1055)" stroke-linecap="butt">
      <text x="-203.3715" xml:space="preserve" y="23.6309" clip-path="url(#clipPath2)" stroke="none">A mod like The Seasons mod will firstly only edit the light / color / opcity of the model.</text>
      <text x="-191.8695" xml:space="preserve" y="38.332" clip-path="url(#clipPath2)" stroke="none">All those customisation will be stored into a new "dummy model" from "The Drill".</text>
    </g>
    <g fill="rgb(0,204,255)" text-rendering="geometricPrecision" shape-rendering="geometricPrecision" transform="matrix(1,0,0,1,766,1055)" stroke="rgb(0,204,255)">
      <rect x="-248.1653" width="577.0198" height="77.9864" y="-218.2848" clip-path="url(#clipPath2)" stroke="none"/>
      <rect x="-248.1653" y="-218.2848" clip-path="url(#clipPath2)" fill="aqua" width="1" height="77.9864" stroke="none"/>
      <rect x="-247.1653" y="-218.2848" clip-path="url(#clipPath2)" fill="aqua" width="575.0198" height="1" stroke="none"/>
      <rect x="-247.1653" y="-141.2984" clip-path="url(#clipPath2)" fill="rgb(0,142,178)" width="576.0198" height="1" stroke="none"/>
      <rect x="327.8545" y="-218.2848" clip-path="url(#clipPath2)" fill="rgb(0,142,178)" width="1" height="76.9864" stroke="none"/>
    </g>
    <g text-rendering="geometricPrecision" stroke-miterlimit="1.45" shape-rendering="geometricPrecision" font-family="sans-serif" transform="matrix(1,0,0,1,766,1055)" stroke-linecap="butt">
      <text x="-141.8966" xml:space="preserve" y="-174.5778" clip-path="url(#clipPath2)" stroke="none">Let's create a copy of the Vanilla model (that was previously backup)</text>
    </g>
    <g fill="rgb(0,204,255)" text-rendering="geometricPrecision" shape-rendering="geometricPrecision" transform="matrix(1,0,0,1,766,1055)" stroke="rgb(0,204,255)">
      <rect x="-112.5466" width="923.2794" height="77.9864" y="116.689" clip-path="url(#clipPath2)" stroke="none"/>
      <rect x="-112.5466" y="116.689" clip-path="url(#clipPath2)" fill="aqua" width="1" height="77.9864" stroke="none"/>
      <rect x="-111.5466" y="116.689" clip-path="url(#clipPath2)" fill="aqua" width="921.2794" height="1" stroke="none"/>
      <rect x="-111.5466" y="193.6754" clip-path="url(#clipPath2)" fill="rgb(0,142,178)" width="922.2794" height="1" stroke="none"/>
      <rect x="809.7327" y="116.689" clip-path="url(#clipPath2)" fill="rgb(0,142,178)" width="1" height="76.9864" stroke="none"/>
    </g>
    <g text-rendering="geometricPrecision" stroke-miterlimit="1.45" shape-rendering="geometricPrecision" font-family="sans-serif" transform="matrix(1,0,0,1,766,1055)" stroke-linecap="butt">
      <text x="-51.7409" xml:space="preserve" y="160.3961" clip-path="url(#clipPath2)" stroke="none">Now let's create a new "dummy" model (trough The Drill) that will be a combination of those previous "dummy" models (see the lines and them arrows).</text>
    </g>
    <g fill="rgb(0,204,255)" text-rendering="geometricPrecision" shape-rendering="geometricPrecision" transform="matrix(1,0,0,1,766,1055)" stroke="rgb(0,204,255)">
      <rect x="-112.5466" width="923.2794" height="77.9864" y="264.234" clip-path="url(#clipPath2)" stroke="none"/>
      <rect x="-112.5466" y="264.234" clip-path="url(#clipPath2)" fill="aqua" width="1" height="77.9864" stroke="none"/>
      <rect x="-111.5466" y="264.234" clip-path="url(#clipPath2)" fill="aqua" width="921.2794" height="1" stroke="none"/>
      <rect x="-111.5466" y="341.2204" clip-path="url(#clipPath2)" fill="rgb(0,142,178)" width="922.2794" height="1" stroke="none"/>
      <rect x="809.7327" y="264.234" clip-path="url(#clipPath2)" fill="rgb(0,142,178)" width="1" height="76.9864" stroke="none"/>
    </g>
    <g text-rendering="geometricPrecision" stroke-miterlimit="1.45" shape-rendering="geometricPrecision" font-family="sans-serif" transform="matrix(1,0,0,1,766,1055)" stroke-linecap="butt">
      <text x="147.3284" xml:space="preserve" y="300.5905" clip-path="url(#clipPath2)" stroke="none">Now we MUST edit the light / level according to the position of light sources.</text>
      <text x="251.4554" xml:space="preserve" y="315.2916" clip-path="url(#clipPath2)" stroke="none">All of that into a new "dummy model"</text>
    </g>
    <g fill="rgb(153,51,102)" text-rendering="geometricPrecision" shape-rendering="geometricPrecision" transform="matrix(1,0,0,1,766,1055)" stroke="rgb(153,51,102)">
      <rect x="-112.5466" width="923.2794" height="77.9864" y="411.7789" clip-path="url(#clipPath2)" stroke="none"/>
      <rect x="-112.5466" y="411.7789" clip-path="url(#clipPath2)" fill="rgb(218,72,145)" width="1" height="77.9864" stroke="none"/>
      <rect x="-111.5466" y="411.7789" clip-path="url(#clipPath2)" fill="rgb(218,72,145)" width="921.2794" height="1" stroke="none"/>
      <rect x="-111.5466" y="488.7653" clip-path="url(#clipPath2)" fill="rgb(107,35,71)" width="922.2794" height="1" stroke="none"/>
      <rect x="809.7327" y="411.7789" clip-path="url(#clipPath2)" fill="rgb(107,35,71)" width="1" height="76.9864" stroke="none"/>
    </g>
    <g text-rendering="geometricPrecision" stroke-miterlimit="1.45" shape-rendering="geometricPrecision" font-family="sans-serif" transform="matrix(1,0,0,1,766,1055)" stroke-linecap="butt">
      <text x="219.6917" xml:space="preserve" y="455.486" clip-path="url(#clipPath2)" stroke="none">Now we say that the final model is quite finished.</text>
    </g>
    <g fill="rgb(0,204,255)" text-rendering="geometricPrecision" shape-rendering="geometricPrecision" transform="matrix(1,0,0,1,766,1055)" stroke="rgb(0,204,255)">
      <rect x="650.3012" width="923.2794" height="77.9864" y="587.4505" clip-path="url(#clipPath2)" stroke="none"/>
      <rect x="650.3012" y="587.4505" clip-path="url(#clipPath2)" fill="aqua" width="1" height="77.9864" stroke="none"/>
      <rect x="651.3012" y="587.4505" clip-path="url(#clipPath2)" fill="aqua" width="921.2794" height="1" stroke="none"/>
      <rect x="651.3012" y="664.4369" clip-path="url(#clipPath2)" fill="rgb(0,142,178)" width="922.2794" height="1" stroke="none"/>
      <rect x="1572.5806" y="587.4505" clip-path="url(#clipPath2)" fill="rgb(0,142,178)" width="1" height="76.9864" stroke="none"/>
    </g>
    <g text-rendering="geometricPrecision" stroke-miterlimit="1.45" shape-rendering="geometricPrecision" font-family="sans-serif" transform="matrix(1,0,0,1,766,1055)" stroke-linecap="butt">
      <text x="855.4556" xml:space="preserve" y="623.8069" clip-path="url(#clipPath2)" stroke="none">Now take the vertices and peaks and of the final model and use them for the doing the collisions.</text>
      <text x="974.8696" xml:space="preserve" y="638.5081" clip-path="url(#clipPath2)" stroke="none">(Like it was done by a mod like No Cubes in 1.7.10)</text>
    </g>
    <g fill="rgb(153,204,0)" text-rendering="geometricPrecision" shape-rendering="geometricPrecision" transform="matrix(1,0,0,1,766,1055)" stroke="rgb(153,204,0)">
      <rect x="1600.2909" width="577.0198" height="77.9864" y="-448.4657" clip-path="url(#clipPath2)" stroke="none"/>
      <rect x="1600.2909" y="-448.4657" clip-path="url(#clipPath2)" fill="rgb(218,255,0)" width="1" height="77.9864" stroke="none"/>
      <rect x="1601.2909" y="-448.4657" clip-path="url(#clipPath2)" fill="rgb(218,255,0)" width="575.0198" height="1" stroke="none"/>
      <rect x="1601.2909" y="-371.4793" clip-path="url(#clipPath2)" fill="rgb(107,142,0)" width="576.0198" height="1" stroke="none"/>
      <rect x="2176.3107" y="-448.4657" clip-path="url(#clipPath2)" fill="rgb(107,142,0)" width="1" height="76.9864" stroke="none"/>
    </g>
    <g text-rendering="geometricPrecision" stroke-miterlimit="1.45" shape-rendering="geometricPrecision" font-family="sans-serif" transform="matrix(1,0,0,1,766,1055)" stroke-linecap="butt">
      <text x="1733.7178" xml:space="preserve" y="-434.161" clip-path="url(#clipPath2)" stroke="none">Examples for the following magical things that will happen.</text>
      <text x="1716.3887" xml:space="preserve" y="-419.4598" clip-path="url(#clipPath2)" stroke="none">Only for a model that will not be customised by mods like those  :</text>
      <text x="1771.9004" xml:space="preserve" y="-404.7587" clip-path="url(#clipPath2)" stroke="none">&gt; The Seasons Mod by The_Weather_Pony</text>
      <text x="1787.9141" xml:space="preserve" y="-390.0575" clip-path="url(#clipPath2)" stroke="none">&gt; The No Cubes mod by a lot of guys.</text>
      <text x="1786.417" xml:space="preserve" y="-375.3563" clip-path="url(#clipPath2)" stroke="none">So models like those from the furnace.</text>
    </g>
    <g fill="rgb(153,204,0)" text-rendering="geometricPrecision" shape-rendering="geometricPrecision" transform="matrix(1,0,0,1,766,1055)" stroke="rgb(153,204,0)">
      <rect x="1600.2909" width="577.0198" height="77.9864" y="-221.0867" clip-path="url(#clipPath2)" stroke="none"/>
      <rect x="1600.2909" y="-221.0867" clip-path="url(#clipPath2)" fill="rgb(218,255,0)" width="1" height="77.9864" stroke="none"/>
      <rect x="1601.2909" y="-221.0867" clip-path="url(#clipPath2)" fill="rgb(218,255,0)" width="575.0198" height="1" stroke="none"/>
      <rect x="1601.2909" y="-144.1003" clip-path="url(#clipPath2)" fill="rgb(107,142,0)" width="576.0198" height="1" stroke="none"/>
      <rect x="2176.3107" y="-221.0867" clip-path="url(#clipPath2)" fill="rgb(107,142,0)" width="1" height="76.9864" stroke="none"/>
    </g>
    <g text-rendering="geometricPrecision" stroke-miterlimit="1.45" shape-rendering="geometricPrecision" font-family="sans-serif" transform="matrix(1,0,0,1,766,1055)" stroke-linecap="butt">
      <text x="1664.0469" xml:space="preserve" y="-184.7302" clip-path="url(#clipPath2)" stroke="none">The VANILLA MODEL is succesfully kept like it was without any more customisation.</text>
      <text x="1824.1104" xml:space="preserve" y="-170.0291" clip-path="url(#clipPath2)" stroke="none">Without the use of CTM.</text>
    </g>
    <g fill="rgb(255,153,0)" text-rendering="geometricPrecision" shape-rendering="geometricPrecision" transform="matrix(1,0,0,1,766,1055)" stroke="rgb(255,153,0)">
      <rect x="2289.6659" width="577.0198" height="77.9864" y="-448.4657" clip-path="url(#clipPath2)" stroke="none"/>
      <rect x="2289.6659" y="-448.4657" clip-path="url(#clipPath2)" fill="rgb(255,218,0)" width="1" height="77.9864" stroke="none"/>
      <rect x="2290.6659" y="-448.4657" clip-path="url(#clipPath2)" fill="rgb(255,218,0)" width="575.0198" height="1" stroke="none"/>
      <rect x="2290.6659" y="-371.4793" clip-path="url(#clipPath2)" fill="rgb(178,107,0)" width="576.0198" height="1" stroke="none"/>
      <rect x="2865.6857" y="-448.4657" clip-path="url(#clipPath2)" fill="rgb(178,107,0)" width="1" height="76.9864" stroke="none"/>
    </g>
    <g text-rendering="geometricPrecision" stroke-miterlimit="1.45" shape-rendering="geometricPrecision" font-family="sans-serif" transform="matrix(1,0,0,1,766,1055)" stroke-linecap="butt">
      <text x="2423.0928" xml:space="preserve" y="-434.161" clip-path="url(#clipPath2)" stroke="none">Examples for the following magical things that will happen.</text>
      <text x="2481.4785" xml:space="preserve" y="-419.4598" clip-path="url(#clipPath2)" stroke="none">For a model from a MOD like those :</text>
      <text x="2522.8398" xml:space="preserve" y="-404.7587" clip-path="url(#clipPath2)" stroke="none">&gt; Carpenter's Blocks</text>
      <text x="2526.3232" xml:space="preserve" y="-390.0575" clip-path="url(#clipPath2)" stroke="none">&gt; Architecture Craft</text>
      <text x="2545.3281" xml:space="preserve" y="-375.3563" clip-path="url(#clipPath2)" stroke="none">&gt; BiblioCraft</text>
    </g>
    <g fill="rgb(255,153,0)" text-rendering="geometricPrecision" shape-rendering="geometricPrecision" transform="matrix(1,0,0,1,766,1055)" stroke="rgb(255,153,0)">
      <rect x="2289.6659" width="577.0198" height="77.9864" y="-221.0867" clip-path="url(#clipPath2)" stroke="none"/>
      <rect x="2289.6659" y="-221.0867" clip-path="url(#clipPath2)" fill="rgb(255,218,0)" width="1" height="77.9864" stroke="none"/>
      <rect x="2290.6659" y="-221.0867" clip-path="url(#clipPath2)" fill="rgb(255,218,0)" width="575.0198" height="1" stroke="none"/>
      <rect x="2290.6659" y="-144.1003" clip-path="url(#clipPath2)" fill="rgb(178,107,0)" width="576.0198" height="1" stroke="none"/>
      <rect x="2865.6857" y="-221.0867" clip-path="url(#clipPath2)" fill="rgb(178,107,0)" width="1" height="76.9864" stroke="none"/>
    </g>
    <g text-rendering="geometricPrecision" stroke-miterlimit="1.45" shape-rendering="geometricPrecision" font-family="sans-serif" transform="matrix(1,0,0,1,766,1055)" stroke-linecap="butt">
      <text x="2312.3652" xml:space="preserve" y="-192.0808" clip-path="url(#clipPath2)" stroke="none">Take the code from 1.6.4 / 1.7.10 of this mod if it wasnt updated to more recent version of the game.</text>
      <text x="2287.8672" xml:space="preserve" y="-177.3796" clip-path="url(#clipPath2)" stroke="none">Easily convert the Java code from 1.6.4 / 1.7.10 to code that will work with a "Custom Model" fromt "The drill".</text>
      <text x="2513.4854" xml:space="preserve" y="-162.6785" clip-path="url(#clipPath2)" stroke="none">Without the use of CTM.</text>
    </g>
    <g fill="rgb(0,204,255)" text-rendering="geometricPrecision" shape-rendering="geometricPrecision" transform="matrix(1,0,0,1,766,1055)" stroke="rgb(0,204,255)">
      <rect x="155.4198" width="453.2687" height="59.3552" y="-315.8577" clip-path="url(#clipPath2)" stroke="none"/>
      <rect x="155.4198" y="-315.8577" clip-path="url(#clipPath2)" fill="aqua" width="1" height="59.3552" stroke="none"/>
      <rect x="156.4198" y="-315.8577" clip-path="url(#clipPath2)" fill="aqua" width="451.2687" height="1" stroke="none"/>
      <rect x="156.4198" y="-257.5025" clip-path="url(#clipPath2)" fill="rgb(0,142,178)" width="452.2687" height="1" stroke="none"/>
      <rect x="607.6885" y="-315.8577" clip-path="url(#clipPath2)" fill="rgb(0,142,178)" width="1" height="58.3552" stroke="none"/>
    </g>
    <g text-rendering="geometricPrecision" stroke-miterlimit="1.45" shape-rendering="geometricPrecision" font-family="sans-serif" transform="matrix(1,0,0,1,766,1055)" stroke-linecap="butt">
      <text x="191.9672" xml:space="preserve" y="-288.8168" clip-path="url(#clipPath2)" stroke="none">CTM will be USED here to help the customisation of those next models.</text>
      <text x="263.8618" xml:space="preserve" y="-274.1156" clip-path="url(#clipPath2)" stroke="none">Only to get the XYZ pos if it's still necessary.</text>
    </g>
    <g fill="rgb(153,51,102)" text-rendering="geometricPrecision" shape-rendering="geometricPrecision" transform="matrix(1,0,0,1,766,1055)" stroke="rgb(153,51,102)">
      <rect x="-112.5466" width="923.2794" height="77.9864" y="754.4449" clip-path="url(#clipPath2)" stroke="none"/>
      <rect x="-112.5466" y="754.4449" clip-path="url(#clipPath2)" fill="rgb(218,72,145)" width="1" height="77.9864" stroke="none"/>
      <rect x="-111.5466" y="754.4449" clip-path="url(#clipPath2)" fill="rgb(218,72,145)" width="921.2794" height="1" stroke="none"/>
      <rect x="-111.5466" y="831.4313" clip-path="url(#clipPath2)" fill="rgb(107,35,71)" width="922.2794" height="1" stroke="none"/>
      <rect x="809.7327" y="754.4449" clip-path="url(#clipPath2)" fill="rgb(107,35,71)" width="1" height="76.9864" stroke="none"/>
    </g>
    <g text-rendering="geometricPrecision" stroke-miterlimit="1.45" shape-rendering="geometricPrecision" font-family="sans-serif" transform="matrix(1,0,0,1,766,1055)" stroke-linecap="butt">
      <text x="118.389" xml:space="preserve" y="790.8014" clip-path="url(#clipPath2)" stroke="none">A part of the cache created by all of those "dummy models" will be kept for other mods.</text>
      <text x="60.8558" xml:space="preserve" y="805.5026" clip-path="url(#clipPath2)" stroke="none">"dummy models" mean models that are instance of a "Customisable model" writen partially trough "The drill".</text>
    </g>
    <g fill="rgb(255,153,204)" text-rendering="geometricPrecision" shape-rendering="geometricPrecision" transform="matrix(1,0,0,1,766,1055)" stroke="rgb(255,153,204)">
      <rect x="848.8905" width="577.0198" height="77.9864" y="-436.1549" clip-path="url(#clipPath2)" stroke="none"/>
      <rect x="848.8905" y="-436.1549" clip-path="url(#clipPath2)" fill="rgb(255,218,255)" width="1" height="77.9864" stroke="none"/>
      <rect x="849.8905" y="-436.1549" clip-path="url(#clipPath2)" fill="rgb(255,218,255)" width="575.0198" height="1" stroke="none"/>
      <rect x="849.8905" y="-359.1685" clip-path="url(#clipPath2)" fill="rgb(178,107,142)" width="576.0198" height="1" stroke="none"/>
      <rect x="1424.9103" y="-436.1549" clip-path="url(#clipPath2)" fill="rgb(178,107,142)" width="1" height="76.9864" stroke="none"/>
    </g>
    <g text-rendering="geometricPrecision" stroke-miterlimit="1.45" shape-rendering="geometricPrecision" font-family="sans-serif" transform="matrix(1,0,0,1,766,1055)" stroke-linecap="butt">
      <text x="874.2881" xml:space="preserve" y="-407.149" clip-path="url(#clipPath2)" stroke="none">CTM will not be necessary if we know how to replace all the dynamic code (if statements, for loops)</text>
      <text x="881.9258" xml:space="preserve" y="-392.4478" clip-path="url(#clipPath2)" stroke="none">by something more static and that we will equilibrate the usage CPU and the usage of the GPU, </text>
      <text x="860.6064" xml:space="preserve" y="-377.7467" clip-path="url(#clipPath2)" stroke="none">depending on the power of the CPU or GPU (Nvidia GPU is more powerfull than Intel GPU for example).</text>
      <path fill="none" d="M386 -961.7675 L386 -713.7029" clip-path="url(#clipPath2)"/>
      <path d="M386 -705.7029 L391 -717.7029 L386 -714.7029 L381 -717.7029 Z" clip-path="url(#clipPath2)" stroke="none"/>
      <path fill="none" d="M-462.0878 -961.7574 L-462.0878 -904.4572" clip-path="url(#clipPath2)"/>
      <path d="M-462.0878 -896.4572 L-457.0878 -908.4572 L-462.0878 -905.4572 L-467.0878 -908.4572 Z" clip-path="url(#clipPath2)" stroke="none"/>
      <path fill="none" d="M-318.5226 -818.491 L89.1003 -707.7881" clip-path="url(#clipPath2)"/>
      <path d="M96.8206 -705.6915 L86.5505 -713.6617 L88.1352 -708.0502 L83.9297 -704.0113 Z" clip-path="url(#clipPath2)" stroke="none"/>
      <path fill="none" d="M674.4962 -143.1021 L674.4962 -20.7255" clip-path="url(#clipPath2)"/>
      <path d="M674.4962 -12.7255 L679.4962 -24.7255 L674.4962 -21.7255 L669.4962 -24.7255 Z" clip-path="url(#clipPath2)" stroke="none"/>
      <path fill="none" d="M386 -548.6287 L386 -456.4519" clip-path="url(#clipPath2)"/>
      <path d="M386 -448.4519 L391 -460.4519 L386 -457.4519 L381 -460.4519 Z" clip-path="url(#clipPath2)" stroke="none"/>
      <path fill="none" d="M36.942 -140.3227 L26.4976 -20.706" clip-path="url(#clipPath2)"/>
      <path d="M25.8018 -12.7363 L31.8266 -24.2559 L26.5846 -21.7022 L21.8645 -25.1258 Z" clip-path="url(#clipPath2)" stroke="none"/>
      <path fill="none" d="M120.8598 65.2721 L243.2242 113.7443" clip-path="url(#clipPath2)"/>
      <path d="M250.6619 116.6906 L241.3468 107.6226 L242.2945 113.3761 L237.6639 116.9198 Z" clip-path="url(#clipPath2)" stroke="none"/>
      <path fill="none" d="M576.4224 65.2721 L454.5681 113.7342" clip-path="url(#clipPath2)"/>
      <path d="M447.1344 116.6906 L460.1327 116.9021 L455.4973 113.3647 L456.4372 107.61 Z" clip-path="url(#clipPath2)" stroke="none"/>
      <path fill="none" d="M201.0438 -548.6042 L-580.1478 -216.83 L-646.6609 -105.2596 L-462.0878 317.4205 L-120.5916 311.4453" clip-path="url(#clipPath2)"/>
      <path d="M-112.5928 311.3053 L-124.6784 306.516 L-121.5914 311.4628 L-124.5035 316.5145 Z" clip-path="url(#clipPath2)" stroke="none"/>
      <path fill="none" d="M349.0931 194.6937 L349.0931 256.2495" clip-path="url(#clipPath2)"/>
      <path d="M349.0931 264.2495 L354.0931 252.2495 L349.0931 255.2495 L344.0931 252.2495 Z" clip-path="url(#clipPath2)" stroke="none"/>
      <path fill="none" d="M349.0931 342.2387 L349.0931 403.7944" clip-path="url(#clipPath2)"/>
      <path d="M349.0931 411.7944 L354.0931 399.7944 L349.0931 402.7944 L344.0931 399.7944 Z" clip-path="url(#clipPath2)" stroke="none"/>
      <path fill="none" d="M518.4337 489.7686 L934.794 585.6496" clip-path="url(#clipPath2)"/>
      <path d="M942.59 587.4449 L932.0181 579.8795 L933.8195 585.4252 L929.774 589.6245 Z" clip-path="url(#clipPath2)" stroke="none"/>
      <path fill="none" d="M1115.1664 665.4186 L1141.2903 981.0847" clip-path="url(#clipPath2)"/>
      <path d="M1141.9502 989.0574 L1145.9432 976.6859 L1141.2078 980.0881 L1135.9774 977.5108 Z" clip-path="url(#clipPath2)" stroke="none"/>
      <path fill="none" d="M868.6041 -557.2497 L1611.6683 -449.6156" clip-path="url(#clipPath2)"/>
      <path d="M1619.5857 -448.4688 L1608.4264 -455.1374 L1610.6787 -449.759 L1606.9928 -445.2407 Z" clip-path="url(#clipPath2)" stroke="none"/>
      <path fill="none" d="M1888.8008 -370.475 L1888.8008 -229.0484" clip-path="url(#clipPath2)"/>
      <path d="M1888.8008 -221.0484 L1893.8008 -233.0484 L1888.8008 -230.0484 L1883.8008 -233.0484 Z" clip-path="url(#clipPath2)" stroke="none"/>
      <path fill="none" d="M1858.3004 -143.1209 L1515.5984 294.7747 L648.6132 410.7172" clip-path="url(#clipPath2)"/>
      <path d="M640.6838 411.7776 L653.2407 415.1429 L649.6044 410.5846 L651.9152 405.2311 Z" clip-path="url(#clipPath2)" stroke="none"/>
      <path fill="none" d="M868.5824 -579.2352 L2281.7263 -438.91" clip-path="url(#clipPath2)"/>
      <path d="M2289.6873 -438.1194 L2278.24 -444.2807 L2280.7312 -439.0088 L2277.252 -434.3297 Z" clip-path="url(#clipPath2)" stroke="none"/>
      <path fill="none" d="M2578.1758 -370.475 L2578.1758 -229.0484" clip-path="url(#clipPath2)"/>
      <path d="M2578.1758 -221.0484 L2583.1758 -233.0484 L2578.1758 -230.0484 L2573.1758 -233.0484 Z" clip-path="url(#clipPath2)" stroke="none"/>
      <path fill="none" d="M2542.4907 -143.1074 L1987.3069 463.4329 L818.6904 454.4014" clip-path="url(#clipPath2)"/>
      <path d="M810.6906 454.3395 L822.6516 459.4321 L819.6904 454.4091 L822.7289 449.4324 Z" clip-path="url(#clipPath2)" stroke="none"/>
      <path fill="none" d="M384.1764 -345.8706 L383.3943 -323.8746" clip-path="url(#clipPath2)"/>
      <path d="M383.1101 -315.8796 L388.5333 -327.6944 L383.4299 -324.874 L378.5396 -328.0497 Z" clip-path="url(#clipPath2)" stroke="none"/>
      <path fill="none" d="M287.158 -256.4961 L172.6217 -220.6686" clip-path="url(#clipPath2)"/>
      <path d="M164.9866 -218.2803 L177.932 -217.0908 L173.5761 -220.9671 L174.9466 -226.6347 Z" clip-path="url(#clipPath2)" stroke="none"/>
      <path fill="none" d="M465.4101 -256.5118 L557.3882 -223.7748" clip-path="url(#clipPath2)"/>
      <path d="M564.9251 -221.0923 L555.2964 -229.8266 L556.4462 -224.1101 L551.9432 -220.4055 Z" clip-path="url(#clipPath2)" stroke="none"/>
      <path fill="none" d="M349.0931 489.7989 L349.0931 746.4083" clip-path="url(#clipPath2)"/>
      <path d="M349.0931 754.4083 L354.0931 742.4083 L349.0931 745.4083 L344.0931 742.4083 Z" clip-path="url(#clipPath2)" stroke="none"/>
      <path fill="none" d="M352.5748 832.4171 L365.8525 981.0659" clip-path="url(#clipPath2)"/>
      <path d="M366.5643 989.0341 L370.4768 976.6368 L365.7636 980.0698 L360.5165 977.5266 Z" clip-path="url(#clipPath2)" stroke="none"/>
      <path fill="none" d="M674.5168 -397.1617 L840.9175 -397.1617" clip-path="url(#clipPath2)"/>
      <path d="M848.9175 -397.1617 L836.9175 -402.1617 L839.9175 -397.1617 L836.9175 -392.1617 Z" clip-path="url(#clipPath2)" stroke="none"/>
    </g>
  </g>
</svg>
